<?xml version="1.0" encoding="UTF-8" standalone="no"?>
<!-- Created with Inkscape (http://www.inkscape.org/) -->

<svg
   xmlns:dc="http://purl.org/dc/elements/1.1/"
   xmlns:cc="http://creativecommons.org/ns#"
   xmlns:rdf="http://www.w3.org/1999/02/22-rdf-syntax-ns#"
   xmlns:svg="http://www.w3.org/2000/svg"
   xmlns="http://www.w3.org/2000/svg"
   xmlns:sodipodi="http://sodipodi.sourceforge.net/DTD/sodipodi-0.dtd"
   xmlns:inkscape="http://www.inkscape.org/namespaces/inkscape"
   width="285.53027mm"
   height="130.06468mm"
   viewBox="0 0 1011.7214 460.8591"
   id="svg2"
   version="1.1"
   inkscape:version="0.91 r13725"
   sodipodi:docname="clojure-persistent-data-structures-sharing.svg"
   inkscape:export-filename="/home/jr0cket/projects/dev-docs/developer-guides/clojure-persistent-data-structures-sharing.png"
   inkscape:export-xdpi="90"
   inkscape:export-ydpi="90">
  <defs
     id="defs4" />
  <sodipodi:namedview
     id="base"
     pagecolor="#ffffff"
     bordercolor="#666666"
     borderopacity="1.0"
     inkscape:pageopacity="1"
     inkscape:pageshadow="2"
     inkscape:zoom="2"
     inkscape:cx="502.54314"
     inkscape:cy="211.79479"
     inkscape:document-units="px"
     inkscape:current-layer="layer1"
     showgrid="false"
     inkscape:window-width="2560"
     inkscape:window-height="1416"
     inkscape:window-x="0"
     inkscape:window-y="24"
     inkscape:window-maximized="1"
     fit-margin-top="8"
     fit-margin-left="8"
     fit-margin-right="8"
     fit-margin-bottom="8" />
  <metadata
     id="metadata7">
    <rdf:RDF>
      <cc:Work
         rdf:about="">
        <dc:format>image/svg+xml</dc:format>
        <dc:type
           rdf:resource="http://purl.org/dc/dcmitype/StillImage" />
        <dc:title></dc:title>
      </cc:Work>
    </rdf:RDF>
  </metadata>
  <g
     inkscape:label="Layer 1"
     inkscape:groupmode="layer"
     id="layer1"
     transform="translate(-0.66843589,-322.02162)">
    <path
       style="fill:none;fill-rule:evenodd;stroke:#000000;stroke-width:2;stroke-linecap:butt;stroke-linejoin:miter;stroke-miterlimit:4;stroke-dasharray:none;stroke-opacity:1"
       d="m 320.10548,445.83051 -19.44906,15.56362 c 0.0859,-0.0441 0.1738,-0.0863 0.25306,-0.13773 0.93562,-0.60657 3.59369,-2.1336 4.19498,-2.71969 0.16879,-0.16452 0.0983,-0.46095 0.14753,-0.69146 l 1.678,-1.08788 c 0.21909,-0.087 0.46329,0.20663 0.69147,0.14753 0.32268,-0.0836 0.55929,-0.36262 0.839,-0.54394 0.27969,-0.18133 0.60029,-0.31128 0.83899,-0.54394 0.37743,-0.36787 0.60911,-0.86753 0.98653,-1.23541 0.80495,-0.78458 2.50556,-0.87827 2.66493,-2.32519 0.35949,-0.3854 0.58928,-0.88903 0.98653,-1.2354 0.50248,-0.43813 1.11861,-0.72522 1.678,-1.08788 0.27969,-0.18134 0.63099,-0.28346 0.83899,-0.54394 0.14708,-0.18418 4.5e-4,-0.50729 0.14753,-0.69147 0.94177,-1.17934 3.72065,-0.34497 3.50352,-2.86722 z m -19.44906,15.56362 c -0.21719,0.11148 -0.43878,0.21914 -0.58786,0.40581 -0.0372,0.0466 -0.0483,0.0806 -0.074,0.12201 l 0.66181,-0.52783 z m -0.66181,0.52782 -1.26679,1.01385 c 0.11911,0.0601 0.24068,0.12896 0.35423,0.0995 1.59961,-0.41432 0.46843,-0.39769 0.91256,-1.1134 z m -1.26679,1.01385 c -0.12026,-0.0606 -0.23789,-0.11241 -0.33724,-0.048 -0.11534,0.0748 -0.0984,0.23483 -0.0918,0.39181 l 0.42884,-0.34387 z m -0.42884,0.34387 -1.73393,1.38749 c 0.59153,-0.3835 0.81451,-0.53954 0.96986,-0.65182 0.004,-0.003 0.008,-0.007 0.0122,-0.009 0.0155,-0.0112 0.0881,-0.0576 0.10007,-0.0665 -0.006,0.003 -0.0105,0.006 -0.0158,0.009 -0.032,0.0208 0.008,-0.0153 -0.0575,0.0357 0.0191,-0.0121 0.0375,-0.0246 0.0575,-0.0357 0.0456,-0.0296 0.10103,-0.0719 0.0158,-0.009 0.20736,-0.11018 0.45216,-0.17989 0.59607,-0.36011 0.0613,-0.0768 0.0607,-0.18738 0.0558,-0.29965 z m -0.76407,0.73567 c -0.0463,0.0332 -0.0951,0.0631 -0.13086,0.10788 -10e-4,0.002 -3.3e-4,0.006 -0.002,0.008 0.0455,-0.0405 0.0901,-0.0816 0.13249,-0.11551 z m -0.13249,0.11552 c -0.28251,0.25132 -0.56736,0.59391 -0.1459,0.68383 0.22825,0.0487 0.007,-0.49432 0.1459,-0.68383 z"
       id="path4473"
       inkscape:connector-curvature="0"
       inkscape:export-xdpi="90"
       inkscape:export-ydpi="90" />
    <ellipse
       style="fill:#ff0000;fill-rule:evenodd;stroke:#000000;stroke-width:1px;stroke-linecap:butt;stroke-linejoin:miter;stroke-opacity:1"
       id="path4476"
       cx="347.75"
       cy="431.86221"
       rx="7.75"
       ry="6.5"
       inkscape:export-xdpi="90"
       inkscape:export-ydpi="90" />
    <rect
       style="fill:#ffffff;fill-rule:evenodd;stroke:#000000;stroke-width:2.9404757;stroke-linecap:butt;stroke-linejoin:miter;stroke-miterlimit:4;stroke-dasharray:none;stroke-opacity:1"
       id="rect4478"
       width="39.127373"
       height="46.62738"
       x="409.01968"
       y="355.29852"
       inkscape:export-xdpi="90"
       inkscape:export-ydpi="90" />
    <ellipse
       style="fill:#000000;fill-rule:evenodd;stroke:#000000;stroke-width:1px;stroke-linecap:butt;stroke-linejoin:miter;stroke-opacity:1"
       id="path4476-7"
       cx="282.5"
       cy="485.86218"
       rx="7.75"
       ry="6.5"
       inkscape:export-xdpi="90"
       inkscape:export-ydpi="90" />
    <ellipse
       style="fill:#000000;fill-rule:evenodd;stroke:#000000;stroke-width:1px;stroke-linecap:butt;stroke-linejoin:miter;stroke-opacity:1"
       id="path4476-7-2"
       cx="231.16737"
       cy="543.86249"
       rx="7.75"
       ry="6.5"
       inkscape:export-xdpi="90"
       inkscape:export-ydpi="90" />
    <path
       style="fill:none;fill-rule:evenodd;stroke:#000000;stroke-width:2;stroke-linecap:butt;stroke-linejoin:miter;stroke-miterlimit:4;stroke-dasharray:none;stroke-opacity:1"
       d="m 220.30882,558.41604 -11.04603,22.3266 c 0.0592,-0.0762 0.12101,-0.15172 0.17111,-0.23179 0.59147,-0.94525 2.35478,-3.45282 2.65192,-4.23815 0.0834,-0.22045 -0.10574,-0.45931 -0.15862,-0.68901 l 1.06078,-1.69526 c 0.16178,-0.17141 0.50721,-0.009 0.689,-0.15862 0.2571,-0.21216 0.35357,-0.56507 0.53039,-0.84764 0.17681,-0.28257 0.41242,-0.53587 0.53038,-0.84763 0.18652,-0.49294 0.18525,-1.04369 0.37176,-1.53663 0.3978,-1.05133 1.89936,-1.85517 1.43209,-3.23381 0.16286,-0.50124 0.1582,-1.0548 0.37178,-1.53664 0.27015,-0.60947 0.70714,-1.13011 1.06076,-1.69525 0.17681,-0.28259 0.45201,-0.52365 0.53039,-0.84763 0.0554,-0.2291 -0.21405,-0.45993 -0.15863,-0.68902 0.3549,-1.46691 3.22599,-1.88555 1.96292,-4.07952 z m -11.04603,22.3266 c -0.1497,0.19285 -0.305,0.38409 -0.36118,0.61629 -0.0141,0.0579 -0.01,0.0934 -0.0155,0.14184 l 0.37662,-0.75812 z m -0.37662,0.75813 -0.71941,1.45433 c 0.13333,0.004 0.27263,0.0151 0.36308,-0.0596 1.27448,-1.05171 0.25639,-0.55843 0.35632,-1.39479 z m -0.71941,1.45433 c -0.13461,-0.004 -0.26311,-10e-4 -0.32593,0.099 -0.0729,0.11653 0.0101,0.25441 0.0825,0.39388 l 0.24326,-0.49292 z m -0.24327,0.49292 -0.9848,1.99043 c 0.37395,-0.59762 0.51006,-0.83329 0.60337,-1.00072 0.002,-0.005 0.004,-0.009 0.007,-0.0136 0.009,-0.0167 0.0555,-0.0894 0.0626,-0.10256 -0.004,0.005 -0.007,0.01 -0.0107,0.0145 -0.0203,0.0324 0.001,-0.0174 -0.037,0.0566 0.0122,-0.019 0.0235,-0.0381 0.037,-0.0566 0.0288,-0.0461 0.0612,-0.10787 0.0107,-0.0145 0.14134,-0.18751 0.33372,-0.35418 0.38795,-0.57834 0.0231,-0.0955 -0.0242,-0.19549 -0.0761,-0.29513 z m -0.38143,0.98971 c -0.028,0.0496 -0.0595,0.0973 -0.073,0.15309 -5.3e-4,0.002 0.002,0.006 0.002,0.008 0.0242,-0.056 0.0472,-0.11204 0.0712,-0.1607 z m -0.0712,0.1607 c -0.14978,0.34719 -0.26308,0.77808 0.15687,0.6814 0.22744,-0.0524 -0.20217,-0.45115 -0.15687,-0.6814 z"
       id="path4473-1-2"
       inkscape:connector-curvature="0"
       inkscape:export-xdpi="90"
       inkscape:export-ydpi="90" />
    <path
       style="fill:none;fill-rule:evenodd;stroke:#000000;stroke-width:2;stroke-linecap:butt;stroke-linejoin:miter;stroke-miterlimit:4;stroke-dasharray:none;stroke-opacity:1"
       d="m 239.69119,559.98323 11.04603,22.3266 c -0.0592,-0.0762 -0.12101,-0.15172 -0.17111,-0.23179 -0.59147,-0.94525 -2.35478,-3.45282 -2.65192,-4.23815 -0.0834,-0.22045 0.10574,-0.45931 0.15862,-0.68901 l -1.06078,-1.69526 c -0.16178,-0.17141 -0.50721,-0.009 -0.689,-0.15862 -0.2571,-0.21216 -0.35357,-0.56507 -0.53039,-0.84764 -0.17681,-0.28257 -0.41242,-0.53587 -0.53038,-0.84763 -0.18652,-0.49294 -0.18525,-1.04369 -0.37176,-1.53663 -0.3978,-1.05133 -1.89936,-1.85517 -1.43209,-3.23381 -0.16286,-0.50124 -0.1582,-1.0548 -0.37178,-1.53664 -0.27015,-0.60947 -0.70714,-1.13011 -1.06076,-1.69525 -0.17681,-0.28259 -0.45201,-0.52365 -0.53039,-0.84763 -0.0554,-0.2291 0.21405,-0.45993 0.15863,-0.68902 -0.3549,-1.46691 -3.22599,-1.88555 -1.96292,-4.07952 z m 11.04603,22.3266 c 0.1497,0.19285 0.305,0.38409 0.36118,0.61629 0.0141,0.0579 0.01,0.0934 0.0155,0.14184 l -0.37662,-0.75812 z m 0.37662,0.75813 0.71941,1.45433 c -0.13333,0.004 -0.27263,0.0151 -0.36308,-0.0596 -1.27448,-1.05171 -0.25639,-0.55843 -0.35632,-1.39479 z m 0.71941,1.45433 c 0.13461,-0.004 0.26311,-10e-4 0.32593,0.099 0.0729,0.11653 -0.0101,0.25441 -0.0825,0.39388 l -0.24326,-0.49292 z m 0.24327,0.49292 0.9848,1.99043 c -0.37395,-0.59762 -0.51006,-0.83329 -0.60337,-1.00072 -0.002,-0.005 -0.004,-0.009 -0.007,-0.0136 -0.009,-0.0167 -0.0555,-0.0894 -0.0626,-0.10256 0.004,0.005 0.007,0.01 0.0107,0.0145 0.0203,0.0324 -10e-4,-0.0174 0.037,0.0566 -0.0122,-0.019 -0.0235,-0.0381 -0.037,-0.0566 -0.0288,-0.0461 -0.0612,-0.10787 -0.0107,-0.0145 -0.14134,-0.18751 -0.33372,-0.35418 -0.38795,-0.57834 -0.0231,-0.0955 0.0242,-0.19549 0.0761,-0.29513 z m 0.38143,0.98971 c 0.028,0.0496 0.0595,0.0973 0.073,0.15309 5.3e-4,0.002 -0.002,0.006 -0.002,0.008 -0.0242,-0.056 -0.0472,-0.11204 -0.0712,-0.1607 z m 0.0712,0.1607 c 0.14978,0.34719 0.26308,0.77808 -0.15687,0.6814 -0.22744,-0.0524 0.20217,-0.45115 0.15687,-0.6814 z"
       id="path4473-1-6-0"
       inkscape:connector-curvature="0"
       inkscape:export-xdpi="90"
       inkscape:export-ydpi="90" />
    <ellipse
       style="fill:#000000;fill-rule:evenodd;stroke:#000000;stroke-width:1px;stroke-linecap:butt;stroke-linejoin:miter;stroke-opacity:1"
       id="path4476-7-4"
       cx="321.66739"
       cy="546.36249"
       rx="7.75"
       ry="6.5"
       inkscape:export-xdpi="90"
       inkscape:export-ydpi="90" />
    <path
       style="fill:none;fill-rule:evenodd;stroke:#000000;stroke-width:2;stroke-linecap:butt;stroke-linejoin:miter;stroke-miterlimit:4;stroke-dasharray:none;stroke-opacity:1"
       d="m 310.80882,560.91604 -11.04603,22.3266 c 0.0592,-0.0762 0.12101,-0.15172 0.17111,-0.23179 0.59147,-0.94525 2.35478,-3.45282 2.65192,-4.23815 0.0834,-0.22045 -0.10574,-0.45931 -0.15862,-0.68901 l 1.06078,-1.69526 c 0.16178,-0.17141 0.50721,-0.009 0.689,-0.15862 0.2571,-0.21216 0.35357,-0.56507 0.53039,-0.84764 0.17681,-0.28257 0.41242,-0.53587 0.53038,-0.84763 0.18652,-0.49294 0.18525,-1.04369 0.37176,-1.53663 0.3978,-1.05133 1.89936,-1.85517 1.43209,-3.23381 0.16286,-0.50124 0.1582,-1.0548 0.37178,-1.53664 0.27015,-0.60947 0.70714,-1.13011 1.06076,-1.69525 0.17681,-0.28259 0.45201,-0.52365 0.53039,-0.84763 0.0554,-0.2291 -0.21405,-0.45993 -0.15863,-0.68902 0.3549,-1.46691 3.22599,-1.88555 1.96292,-4.07952 z m -11.04603,22.3266 c -0.1497,0.19285 -0.305,0.38409 -0.36118,0.61629 -0.0141,0.0579 -0.01,0.0934 -0.0155,0.14184 l 0.37662,-0.75812 z m -0.37662,0.75813 -0.71941,1.45433 c 0.13333,0.004 0.27263,0.0151 0.36308,-0.0596 1.27448,-1.05171 0.25639,-0.55843 0.35632,-1.39479 z m -0.71941,1.45433 c -0.13461,-0.004 -0.26311,-10e-4 -0.32593,0.099 -0.0729,0.11653 0.0101,0.25441 0.0825,0.39388 l 0.24326,-0.49292 z m -0.24327,0.49292 -0.9848,1.99043 c 0.37395,-0.59762 0.51006,-0.83329 0.60337,-1.00072 0.002,-0.005 0.004,-0.009 0.007,-0.0136 0.009,-0.0167 0.0555,-0.0894 0.0626,-0.10256 -0.004,0.005 -0.007,0.01 -0.0107,0.0145 -0.0203,0.0324 0.001,-0.0174 -0.037,0.0566 0.0122,-0.019 0.0235,-0.0381 0.037,-0.0566 0.0288,-0.0461 0.0612,-0.10787 0.0107,-0.0145 0.14134,-0.18751 0.33372,-0.35418 0.38795,-0.57834 0.0231,-0.0955 -0.0242,-0.19549 -0.0761,-0.29513 z m -0.38143,0.98971 c -0.028,0.0496 -0.0595,0.0973 -0.073,0.15309 -5.3e-4,0.002 0.002,0.006 0.002,0.008 0.0242,-0.056 0.0472,-0.11204 0.0712,-0.1607 z m -0.0712,0.1607 c -0.14978,0.34719 -0.26308,0.77808 0.15687,0.6814 0.22744,-0.0524 -0.20217,-0.45115 -0.15687,-0.6814 z"
       id="path4473-1-0"
       inkscape:connector-curvature="0"
       inkscape:export-xdpi="90"
       inkscape:export-ydpi="90" />
    <path
       style="fill:none;fill-rule:evenodd;stroke:#000000;stroke-width:2;stroke-linecap:butt;stroke-linejoin:miter;stroke-miterlimit:4;stroke-dasharray:none;stroke-opacity:1"
       d="m 330.19119,562.48323 11.04603,22.3266 c -0.0592,-0.0762 -0.12101,-0.15172 -0.17111,-0.23179 -0.59147,-0.94525 -2.35478,-3.45282 -2.65192,-4.23815 -0.0834,-0.22045 0.10574,-0.45931 0.15862,-0.68901 l -1.06078,-1.69526 c -0.16178,-0.17141 -0.50721,-0.009 -0.689,-0.15862 -0.2571,-0.21216 -0.35357,-0.56507 -0.53039,-0.84764 -0.17681,-0.28257 -0.41242,-0.53587 -0.53038,-0.84763 -0.18652,-0.49294 -0.18525,-1.04369 -0.37176,-1.53663 -0.3978,-1.05133 -1.89936,-1.85517 -1.43209,-3.23381 -0.16286,-0.50124 -0.1582,-1.0548 -0.37178,-1.53664 -0.27015,-0.60947 -0.70714,-1.13011 -1.06076,-1.69525 -0.17681,-0.28259 -0.45201,-0.52365 -0.53039,-0.84763 -0.0554,-0.2291 0.21405,-0.45993 0.15863,-0.68902 -0.3549,-1.46691 -3.22599,-1.88555 -1.96292,-4.07952 z m 11.04603,22.3266 c 0.1497,0.19285 0.305,0.38409 0.36118,0.61629 0.0141,0.0579 0.01,0.0934 0.0155,0.14184 l -0.37662,-0.75812 z m 0.37662,0.75813 0.71941,1.45433 c -0.13333,0.004 -0.27263,0.0151 -0.36308,-0.0596 -1.27448,-1.05171 -0.25639,-0.55843 -0.35632,-1.39479 z m 0.71941,1.45433 c 0.13461,-0.004 0.26311,-10e-4 0.32593,0.099 0.0729,0.11653 -0.0101,0.25441 -0.0825,0.39388 l -0.24326,-0.49292 z m 0.24327,0.49292 0.9848,1.99043 c -0.37395,-0.59762 -0.51006,-0.83329 -0.60337,-1.00072 -0.002,-0.005 -0.004,-0.009 -0.007,-0.0136 -0.009,-0.0167 -0.0555,-0.0894 -0.0626,-0.10256 0.004,0.005 0.007,0.01 0.0107,0.0145 0.0203,0.0324 -10e-4,-0.0174 0.037,0.0566 -0.0122,-0.019 -0.0235,-0.0381 -0.037,-0.0566 -0.0288,-0.0461 -0.0612,-0.10787 -0.0107,-0.0145 -0.14134,-0.18751 -0.33372,-0.35418 -0.38795,-0.57834 -0.0231,-0.0955 0.0242,-0.19549 0.0761,-0.29513 z m 0.38143,0.98971 c 0.028,0.0496 0.0595,0.0973 0.073,0.15309 5.3e-4,0.002 -0.002,0.006 -0.002,0.008 -0.0242,-0.056 -0.0472,-0.11204 -0.0712,-0.1607 z m 0.0712,0.1607 c 0.14978,0.34719 0.26308,0.77808 -0.15687,0.6814 -0.22744,-0.0524 0.20217,-0.45115 0.15687,-0.6814 z"
       id="path4473-1-6-6"
       inkscape:connector-curvature="0"
       inkscape:export-xdpi="90"
       inkscape:export-ydpi="90" />
    <ellipse
       style="fill:#000000;fill-rule:evenodd;stroke:#000000;stroke-width:1px;stroke-linecap:butt;stroke-linejoin:miter;stroke-opacity:1"
       id="path4476-7-8"
       cx="403.16739"
       cy="486.86246"
       rx="7.75"
       ry="6.5"
       inkscape:export-xdpi="90"
       inkscape:export-ydpi="90" />
    <path
       style="fill:none;fill-rule:evenodd;stroke:#000000;stroke-width:2;stroke-linecap:butt;stroke-linejoin:miter;stroke-miterlimit:4;stroke-dasharray:none;stroke-opacity:1"
       d="m 392.30882,501.41604 -11.04603,22.3266 c 0.0592,-0.0762 0.12101,-0.15172 0.17111,-0.23179 0.59147,-0.94525 2.35478,-3.45282 2.65192,-4.23815 0.0834,-0.22045 -0.10574,-0.45931 -0.15862,-0.68901 l 1.06078,-1.69526 c 0.16178,-0.17141 0.50721,-0.009 0.689,-0.15862 0.2571,-0.21216 0.35357,-0.56507 0.53039,-0.84764 0.17681,-0.28257 0.41242,-0.53587 0.53038,-0.84763 0.18652,-0.49294 0.18525,-1.04369 0.37176,-1.53663 0.3978,-1.05133 1.89936,-1.85517 1.43209,-3.23381 0.16286,-0.50124 0.1582,-1.0548 0.37178,-1.53664 0.27015,-0.60947 0.70714,-1.13011 1.06076,-1.69525 0.17681,-0.28259 0.45201,-0.52365 0.53039,-0.84763 0.0554,-0.2291 -0.21405,-0.45993 -0.15863,-0.68902 0.3549,-1.46691 3.22599,-1.88555 1.96292,-4.07952 z m -11.04603,22.3266 c -0.1497,0.19285 -0.305,0.38409 -0.36118,0.61629 -0.0141,0.0579 -0.01,0.0934 -0.0155,0.14184 l 0.37662,-0.75812 z m -0.37662,0.75813 -0.71941,1.45433 c 0.13333,0.004 0.27263,0.0151 0.36308,-0.0596 1.27448,-1.05171 0.25639,-0.55843 0.35632,-1.39479 z m -0.71941,1.45433 c -0.13461,-0.004 -0.26311,-10e-4 -0.32593,0.099 -0.0729,0.11653 0.0101,0.25441 0.0825,0.39388 l 0.24326,-0.49292 z m -0.24327,0.49292 -0.9848,1.99043 c 0.37395,-0.59762 0.51006,-0.83329 0.60337,-1.00072 0.002,-0.005 0.004,-0.009 0.007,-0.0136 0.009,-0.0167 0.0555,-0.0894 0.0626,-0.10256 -0.004,0.005 -0.007,0.01 -0.0107,0.0145 -0.0203,0.0324 0.001,-0.0174 -0.037,0.0566 0.0122,-0.019 0.0235,-0.0381 0.037,-0.0566 0.0288,-0.0461 0.0612,-0.10787 0.0107,-0.0145 0.14134,-0.18751 0.33372,-0.35418 0.38795,-0.57834 0.0231,-0.0955 -0.0242,-0.19549 -0.0761,-0.29513 z m -0.38143,0.98971 c -0.028,0.0496 -0.0595,0.0973 -0.073,0.15309 -5.3e-4,0.002 0.002,0.006 0.002,0.008 0.0242,-0.056 0.0472,-0.11204 0.0712,-0.1607 z m -0.0712,0.1607 c -0.14978,0.34719 -0.26308,0.77808 0.15687,0.6814 0.22744,-0.0524 -0.20217,-0.45115 -0.15687,-0.6814 z"
       id="path4473-1-1"
       inkscape:connector-curvature="0"
       inkscape:export-xdpi="90"
       inkscape:export-ydpi="90" />
    <text
       xml:space="preserve"
       style="font-style:normal;font-weight:normal;font-size:40px;line-height:125%;font-family:sans-serif;letter-spacing:0px;word-spacing:0px;fill:#000000;fill-opacity:1;stroke:none;stroke-width:1px;stroke-linecap:butt;stroke-linejoin:miter;stroke-opacity:1"
       x="186.5"
       y="627.36218"
       id="text5431"
       sodipodi:linespacing="125%"
       inkscape:export-xdpi="90"
       inkscape:export-ydpi="90"><tspan
         sodipodi:role="line"
         id="tspan5433"
         x="186.5"
         y="627.36218">1</tspan></text>
    <text
       xml:space="preserve"
       style="font-style:normal;font-weight:normal;font-size:40px;line-height:125%;font-family:sans-serif;letter-spacing:0px;word-spacing:0px;fill:#000000;fill-opacity:1;stroke:none;stroke-width:1px;stroke-linecap:butt;stroke-linejoin:miter;stroke-opacity:1"
       x="237.5"
       y="627.36218"
       id="text5435"
       sodipodi:linespacing="125%"
       inkscape:export-xdpi="90"
       inkscape:export-ydpi="90"><tspan
         sodipodi:role="line"
         id="tspan5437"
         x="237.5"
         y="627.36218">2</tspan></text>
    <path
       style="fill:none;fill-rule:evenodd;stroke:#000000;stroke-width:2;stroke-linecap:butt;stroke-linejoin:miter;stroke-miterlimit:4;stroke-dasharray:none;stroke-opacity:1"
       d="m 265.37668,503.23579 -15.77343,19.27929 c 0.0748,-0.061 0.15196,-0.12071 0.21875,-0.1875 0.78846,-0.78845 3.06939,-2.8365 3.53515,-3.53515 0.13074,-0.19612 0,-0.47133 0,-0.70703 l 1.41407,-1.41406 c 0.19612,-0.13075 0.49621,0.10541 0.70703,0 0.29814,-0.14907 0.47132,-0.47134 0.70703,-0.70704 0.2357,-0.2357 0.52213,-0.42968 0.70703,-0.70703 0.29236,-0.43853 0.41468,-0.97553 0.70703,-1.41406 0.62352,-0.93528 2.26715,-1.38175 2.12109,-2.83008 0.27116,-0.45193 0.39081,-0.99242 0.70704,-1.41406 0.4,-0.53333 0.94266,-0.94266 1.41406,-1.41406 0.2357,-0.23571 0.55796,-0.40889 0.70703,-0.70703 0.10541,-0.21082 -0.10541,-0.49622 0,-0.70704 0.67495,-1.34989 3.56677,-1.11373 2.82812,-3.53515 z m -15.77343,19.27929 c -0.18915,0.15435 -0.3834,0.30587 -0.49024,0.51954 -0.0267,0.0533 -0.0304,0.0889 -0.0469,0.13476 l 0.53711,-0.6543 z m -0.53711,0.6543 -1.02735,1.25586 c 0.12902,0.0339 0.26229,0.0759 0.36719,0.0234 1.47795,-0.73897 0.37514,-0.48668 0.66016,-1.2793 z m -1.02735,1.25586 c -0.13026,-0.0342 -0.25611,-0.0603 -0.33984,0.0234 -0.0972,0.0972 -0.0472,0.25019 -0.008,0.40234 l 0.34765,-0.42578 z m -0.34765,0.42578 -1.40625,1.71875 c 0.49849,-0.49849 0.684,-0.69762 0.8125,-0.83984 0.003,-0.004 0.006,-0.008 0.01,-0.0117 0.0128,-0.0142 0.0741,-0.0747 0.084,-0.0859 -0.005,0.004 -0.009,0.008 -0.0137,0.0117 -0.027,0.027 0.005,-0.0167 -0.0488,0.0469 0.0162,-0.0158 0.0315,-0.0319 0.0488,-0.0469 0.0384,-0.0385 0.0838,-0.0914 0.0137,-0.0117 0.1798,-0.15102 0.40467,-0.27028 0.50781,-0.47656 0.0439,-0.0879 0.0203,-0.19593 -0.008,-0.30469 z m -0.59375,0.87891 c -0.0384,0.0421 -0.0798,0.0815 -0.10547,0.13281 -0.001,0.002 9.5e-4,0.006 0,0.008 0.0361,-0.0491 0.0711,-0.0986 0.10547,-0.14062 z m -0.10547,0.14062 c -0.22385,0.30474 -0.43094,0.69922 0,0.69922 0.23339,0 -0.0958,-0.485 0,-0.69922 z"
       id="path4473-3"
       inkscape:connector-curvature="0"
       inkscape:export-xdpi="90"
       inkscape:export-ydpi="90" />
    <path
       style="fill:none;fill-rule:evenodd;stroke:#000000;stroke-width:2;stroke-linecap:butt;stroke-linejoin:miter;stroke-miterlimit:4;stroke-dasharray:none;stroke-opacity:1"
       d="m 292.12332,506.73579 15.77342,19.27929 c -0.0748,-0.061 -0.15196,-0.12071 -0.21875,-0.1875 -0.78846,-0.78845 -3.06939,-2.8365 -3.53515,-3.53515 -0.13074,-0.19612 0,-0.47133 0,-0.70703 l -1.41407,-1.41406 c -0.19612,-0.13075 -0.49621,0.10541 -0.70703,0 -0.29813,-0.14907 -0.47131,-0.47134 -0.70702,-0.70704 -0.2357,-0.2357 -0.52213,-0.42968 -0.70703,-0.70703 -0.29236,-0.43853 -0.41468,-0.97553 -0.70703,-1.41406 -0.62352,-0.93528 -2.26715,-1.38175 -2.12109,-2.83008 -0.27116,-0.45193 -0.39081,-0.99242 -0.70704,-1.41406 -0.4,-0.53333 -0.94266,-0.94266 -1.41406,-1.41406 -0.2357,-0.23571 -0.55796,-0.40889 -0.70703,-0.70703 -0.10541,-0.21082 0.10541,-0.49622 0,-0.70704 -0.67495,-1.34989 -3.56677,-1.11373 -2.82812,-3.53515 z m 15.77342,19.27929 c 0.18915,0.15435 0.3834,0.30587 0.49024,0.51954 0.0267,0.0533 0.0304,0.0889 0.0469,0.13476 l -0.53711,-0.6543 z m 0.53711,0.6543 1.02735,1.25586 c -0.12902,0.0339 -0.26229,0.0759 -0.36719,0.0234 -1.47795,-0.73897 -0.37514,-0.48668 -0.66016,-1.2793 z m 1.02735,1.25586 c 0.13026,-0.0342 0.25611,-0.0603 0.33984,0.0234 0.0972,0.0972 0.0472,0.25019 0.008,0.40234 l -0.34765,-0.42578 z m 0.34765,0.42578 1.40625,1.71875 c -0.49849,-0.49849 -0.684,-0.69762 -0.8125,-0.83984 -0.003,-0.004 -0.006,-0.008 -0.01,-0.0117 -0.0128,-0.0142 -0.0741,-0.0747 -0.084,-0.0859 0.005,0.004 0.009,0.008 0.0137,0.0117 0.027,0.027 -0.005,-0.0167 0.0488,0.0469 -0.0162,-0.0158 -0.0315,-0.0319 -0.0488,-0.0469 -0.0384,-0.0385 -0.0838,-0.0914 -0.0137,-0.0117 -0.1798,-0.15102 -0.40467,-0.27028 -0.50781,-0.47656 -0.0439,-0.0879 -0.0203,-0.19593 0.008,-0.30469 z m 0.59375,0.87891 c 0.0384,0.0421 0.0798,0.0815 0.10547,0.13281 0.001,0.002 -9.5e-4,0.006 0,0.008 -0.0361,-0.0491 -0.0711,-0.0986 -0.10547,-0.14062 z m 0.10547,0.14062 c 0.22385,0.30474 0.43094,0.69922 0,0.69922 -0.23339,0 0.0958,-0.485 0,-0.69922 z"
       id="path4473-7-3"
       inkscape:connector-curvature="0"
       inkscape:export-xdpi="90"
       inkscape:export-ydpi="90" />
    <text
       xml:space="preserve"
       style="font-style:normal;font-weight:normal;font-size:40px;line-height:125%;font-family:sans-serif;letter-spacing:0px;word-spacing:0px;fill:#000000;fill-opacity:1;stroke:none;stroke-width:1px;stroke-linecap:butt;stroke-linejoin:miter;stroke-opacity:1"
       x="283.3125"
       y="627.70593"
       id="text5435-7"
       sodipodi:linespacing="125%"
       inkscape:export-xdpi="90"
       inkscape:export-ydpi="90"><tspan
         sodipodi:role="line"
         id="tspan5437-4"
         x="283.3125"
         y="627.70593">3</tspan></text>
    <text
       xml:space="preserve"
       style="font-style:normal;font-weight:normal;font-size:40px;line-height:125%;font-family:sans-serif;letter-spacing:0px;word-spacing:0px;fill:#000000;fill-opacity:1;stroke:none;stroke-width:1px;stroke-linecap:butt;stroke-linejoin:miter;stroke-opacity:1"
       x="334.5"
       y="628.86218"
       id="text5487"
       sodipodi:linespacing="125%"
       inkscape:export-xdpi="90"
       inkscape:export-ydpi="90"><tspan
         sodipodi:role="line"
         id="tspan5489"
         x="334.5"
         y="628.86218">4</tspan></text>
    <path
       style="fill:none;fill-rule:evenodd;stroke:#000000;stroke-width:2;stroke-linecap:butt;stroke-linejoin:miter;stroke-miterlimit:4;stroke-dasharray:none;stroke-opacity:1"
       d="m 366.42255,445.84532 19.44906,15.56362 c -0.0859,-0.0441 -0.1738,-0.0863 -0.25306,-0.13773 -0.93562,-0.60657 -3.59369,-2.1336 -4.19498,-2.71969 -0.16879,-0.16452 -0.0983,-0.46095 -0.14753,-0.69146 l -1.678,-1.08788 c -0.21909,-0.087 -0.46329,0.20663 -0.69147,0.14753 -0.32268,-0.0836 -0.55929,-0.36262 -0.839,-0.54394 -0.27969,-0.18133 -0.60029,-0.31128 -0.83899,-0.54394 -0.37743,-0.36787 -0.60911,-0.86753 -0.98653,-1.23541 -0.80495,-0.78458 -2.50556,-0.87827 -2.66493,-2.32519 -0.35949,-0.3854 -0.58928,-0.88903 -0.98653,-1.2354 -0.50248,-0.43813 -1.11861,-0.72522 -1.678,-1.08788 -0.27969,-0.18134 -0.63099,-0.28346 -0.83899,-0.54394 -0.14708,-0.18418 -4.5e-4,-0.50729 -0.14753,-0.69147 -0.94177,-1.17934 -3.72065,-0.34497 -3.50352,-2.86722 z m 19.44906,15.56362 c 0.21719,0.11148 0.43878,0.21914 0.58786,0.40581 0.0372,0.0466 0.0483,0.0806 0.074,0.12201 l -0.66181,-0.52783 z m 0.66181,0.52782 1.26679,1.01385 c -0.11911,0.0601 -0.24068,0.12896 -0.35423,0.0995 -1.59961,-0.41432 -0.46843,-0.39769 -0.91256,-1.1134 z m 1.26679,1.01385 c 0.12026,-0.0606 0.23789,-0.11241 0.33724,-0.048 0.11534,0.0748 0.0984,0.23483 0.0918,0.39181 l -0.42884,-0.34387 z m 0.42884,0.34387 1.73393,1.38749 c -0.59153,-0.3835 -0.81451,-0.53954 -0.96986,-0.65182 -0.004,-0.003 -0.008,-0.007 -0.0122,-0.009 -0.0155,-0.0112 -0.0881,-0.0576 -0.10007,-0.0665 0.006,0.003 0.0105,0.006 0.0158,0.009 0.032,0.0208 -0.008,-0.0153 0.0575,0.0357 -0.0191,-0.0121 -0.0375,-0.0246 -0.0575,-0.0357 -0.0456,-0.0296 -0.10103,-0.0719 -0.0158,-0.009 -0.20736,-0.11018 -0.45216,-0.17989 -0.59607,-0.36011 -0.0613,-0.0768 -0.0607,-0.18738 -0.0558,-0.29965 z m 0.76407,0.73567 c 0.0463,0.0332 0.0951,0.0631 0.13086,0.10788 10e-4,0.002 3.3e-4,0.006 0.002,0.008 -0.0455,-0.0405 -0.0901,-0.0816 -0.13249,-0.11551 z m 0.13249,0.11552 c 0.28251,0.25132 0.56736,0.59391 0.1459,0.68383 -0.22825,0.0487 -0.007,-0.49432 -0.1459,-0.68383 z"
       id="path4473-2"
       inkscape:connector-curvature="0"
       inkscape:export-xdpi="90"
       inkscape:export-ydpi="90" />
    <text
       xml:space="preserve"
       style="font-style:normal;font-weight:normal;font-size:40px;line-height:125%;font-family:sans-serif;letter-spacing:0px;word-spacing:0px;fill:#000000;fill-opacity:1;stroke:none;stroke-width:1px;stroke-linecap:butt;stroke-linejoin:miter;stroke-opacity:1"
       x="365.42188"
       y="568.94226"
       id="text5487-0"
       sodipodi:linespacing="125%"
       inkscape:export-xdpi="90"
       inkscape:export-ydpi="90"><tspan
         sodipodi:role="line"
         id="tspan5489-7"
         x="365.42188"
         y="568.94226">5</tspan></text>
    <rect
       style="fill:#ffffff;fill-rule:evenodd;stroke:#000000;stroke-width:2.9404757;stroke-linecap:butt;stroke-linejoin:miter;stroke-miterlimit:4;stroke-dasharray:none;stroke-opacity:1"
       id="rect4478-2"
       width="39.127373"
       height="46.62738"
       x="369.24884"
       y="355.29852"
       inkscape:export-xdpi="90"
       inkscape:export-ydpi="90" />
    <rect
       style="fill:#ffffff;fill-rule:evenodd;stroke:#000000;stroke-width:2.9404757;stroke-linecap:butt;stroke-linejoin:miter;stroke-miterlimit:4;stroke-dasharray:none;stroke-opacity:1"
       id="rect4478-1"
       width="39.127373"
       height="46.62738"
       x="329.478"
       y="355.29852"
       inkscape:export-xdpi="90"
       inkscape:export-ydpi="90" />
    <rect
       style="fill:#ffffff;fill-rule:evenodd;stroke:#000000;stroke-width:2.9404757;stroke-linecap:butt;stroke-linejoin:miter;stroke-miterlimit:4;stroke-dasharray:none;stroke-opacity:1"
       id="rect4478-20"
       width="39.127373"
       height="46.62738"
       x="289.70715"
       y="355.29852"
       inkscape:export-xdpi="90"
       inkscape:export-ydpi="90" />
    <rect
       style="fill:#ffffff;fill-rule:evenodd;stroke:#000000;stroke-width:2.9404757;stroke-linecap:butt;stroke-linejoin:miter;stroke-miterlimit:4;stroke-dasharray:none;stroke-opacity:1"
       id="rect4478-8"
       width="39.127373"
       height="46.62738"
       x="249.93631"
       y="355.29852"
       inkscape:export-xdpi="90"
       inkscape:export-ydpi="90" />
    <text
       xml:space="preserve"
       style="font-style:normal;font-weight:normal;font-size:40px;line-height:125%;font-family:sans-serif;letter-spacing:0px;word-spacing:0px;fill:#000000;fill-opacity:1;stroke:none;stroke-width:1px;stroke-linecap:butt;stroke-linejoin:miter;stroke-opacity:1"
       x="257.92188"
       y="392.94229"
       id="text5487-4-8"
       sodipodi:linespacing="125%"
       inkscape:export-xdpi="90"
       inkscape:export-ydpi="90"><tspan
         sodipodi:role="line"
         id="tspan5489-5-7"
         x="257.92188"
         y="392.94229">1</tspan></text>
    <text
       xml:space="preserve"
       style="font-style:normal;font-weight:normal;font-size:40px;line-height:125%;font-family:sans-serif;letter-spacing:0px;word-spacing:0px;fill:#000000;fill-opacity:1;stroke:none;stroke-width:1px;stroke-linecap:butt;stroke-linejoin:miter;stroke-opacity:1"
       x="297.42188"
       y="392.94229"
       id="text5487-4-0"
       sodipodi:linespacing="125%"
       inkscape:export-xdpi="90"
       inkscape:export-ydpi="90"><tspan
         sodipodi:role="line"
         id="tspan5489-5-5"
         x="297.42188"
         y="392.94229">2</tspan></text>
    <text
       xml:space="preserve"
       style="font-style:normal;font-weight:normal;font-size:40px;line-height:125%;font-family:sans-serif;letter-spacing:0px;word-spacing:0px;fill:#000000;fill-opacity:1;stroke:none;stroke-width:1px;stroke-linecap:butt;stroke-linejoin:miter;stroke-opacity:1"
       x="335.92188"
       y="393.44229"
       id="text5487-4-1"
       sodipodi:linespacing="125%"
       inkscape:export-xdpi="90"
       inkscape:export-ydpi="90"><tspan
         sodipodi:role="line"
         id="tspan5489-5-2"
         x="335.92188"
         y="393.44229">3</tspan></text>
    <text
       xml:space="preserve"
       style="font-style:normal;font-weight:normal;font-size:40px;line-height:125%;font-family:sans-serif;letter-spacing:0px;word-spacing:0px;fill:#000000;fill-opacity:1;stroke:none;stroke-width:1px;stroke-linecap:butt;stroke-linejoin:miter;stroke-opacity:1"
       x="374.92188"
       y="393.94229"
       id="text5487-4-7"
       sodipodi:linespacing="125%"
       inkscape:transform-center-x="26"
       inkscape:transform-center-y="76.000006"
       inkscape:export-xdpi="90"
       inkscape:export-ydpi="90"><tspan
         sodipodi:role="line"
         id="tspan5489-5-74"
         x="374.92188"
         y="393.94229">4</tspan></text>
    <text
       xml:space="preserve"
       style="font-style:normal;font-weight:normal;font-size:40px;line-height:125%;font-family:sans-serif;letter-spacing:0px;word-spacing:0px;fill:#000000;fill-opacity:1;stroke:none;stroke-width:1px;stroke-linecap:butt;stroke-linejoin:miter;stroke-opacity:1"
       x="414.92188"
       y="393.44229"
       id="text5487-4-5"
       sodipodi:linespacing="125%"
       inkscape:export-xdpi="90"
       inkscape:export-ydpi="90"><tspan
         sodipodi:role="line"
         id="tspan5489-5-8"
         x="414.92188"
         y="393.44229">5</tspan></text>
    <rect
       style="fill:#ffffff;fill-rule:evenodd;stroke:#000000;stroke-width:2.9404757;stroke-linecap:butt;stroke-linejoin:miter;stroke-miterlimit:4;stroke-dasharray:none;stroke-opacity:1"
       id="rect4478-5"
       width="39.127373"
       height="46.62738"
       x="818.70715"
       y="356.04852" />
    <rect
       style="fill:#ffffff;fill-rule:evenodd;stroke:#000000;stroke-width:2.9404757;stroke-linecap:butt;stroke-linejoin:miter;stroke-miterlimit:4;stroke-dasharray:none;stroke-opacity:1"
       id="rect4478-2-1"
       width="39.127373"
       height="46.62738"
       x="778.93634"
       y="356.04852" />
    <rect
       style="fill:#ffffff;fill-rule:evenodd;stroke:#000000;stroke-width:2.9404757;stroke-linecap:butt;stroke-linejoin:miter;stroke-miterlimit:4;stroke-dasharray:none;stroke-opacity:1"
       id="rect4478-27-5"
       width="39.127373"
       height="46.62738"
       x="858.47803"
       y="356.04852" />
    <rect
       style="fill:#ffffff;fill-rule:evenodd;stroke:#000000;stroke-width:2.9404757;stroke-linecap:butt;stroke-linejoin:miter;stroke-miterlimit:4;stroke-dasharray:none;stroke-opacity:1"
       id="rect4478-1-4"
       width="39.127373"
       height="46.62738"
       x="739.16547"
       y="356.04852" />
    <rect
       style="fill:#ffffff;fill-rule:evenodd;stroke:#000000;stroke-width:2.9404757;stroke-linecap:butt;stroke-linejoin:miter;stroke-miterlimit:4;stroke-dasharray:none;stroke-opacity:1"
       id="rect4478-20-4"
       width="39.127373"
       height="46.62738"
       x="699.39459"
       y="356.04852" />
    <rect
       style="fill:#ffffff;fill-rule:evenodd;stroke:#000000;stroke-width:2.9404757;stroke-linecap:butt;stroke-linejoin:miter;stroke-miterlimit:4;stroke-dasharray:none;stroke-opacity:1"
       id="rect4478-8-6"
       width="39.127373"
       height="46.62738"
       x="659.62378"
       y="356.04852" />
    <text
       xml:space="preserve"
       style="font-style:normal;font-weight:normal;font-size:40px;line-height:125%;font-family:sans-serif;letter-spacing:0px;word-spacing:0px;fill:#000000;fill-opacity:1;stroke:none;stroke-width:1px;stroke-linecap:butt;stroke-linejoin:miter;stroke-opacity:1"
       x="667.60931"
       y="393.69229"
       id="text5487-4-8-8"
       sodipodi:linespacing="125%"><tspan
         sodipodi:role="line"
         id="tspan5489-5-7-6"
         x="667.60931"
         y="393.69229">1</tspan></text>
    <text
       xml:space="preserve"
       style="font-style:normal;font-weight:normal;font-size:40px;line-height:125%;font-family:sans-serif;letter-spacing:0px;word-spacing:0px;fill:#000000;fill-opacity:1;stroke:none;stroke-width:1px;stroke-linecap:butt;stroke-linejoin:miter;stroke-opacity:1"
       x="707.10931"
       y="393.69229"
       id="text5487-4-0-5"
       sodipodi:linespacing="125%"><tspan
         sodipodi:role="line"
         id="tspan5489-5-5-2"
         x="707.10931"
         y="393.69229">2</tspan></text>
    <text
       xml:space="preserve"
       style="font-style:normal;font-weight:normal;font-size:40px;line-height:125%;font-family:sans-serif;letter-spacing:0px;word-spacing:0px;fill:#000000;fill-opacity:1;stroke:none;stroke-width:1px;stroke-linecap:butt;stroke-linejoin:miter;stroke-opacity:1"
       x="745.60931"
       y="394.19229"
       id="text5487-4-1-3"
       sodipodi:linespacing="125%"><tspan
         sodipodi:role="line"
         id="tspan5489-5-2-7"
         x="745.60931"
         y="394.19229">3</tspan></text>
    <text
       xml:space="preserve"
       style="font-style:normal;font-weight:normal;font-size:40px;line-height:125%;font-family:sans-serif;letter-spacing:0px;word-spacing:0px;fill:#000000;fill-opacity:1;stroke:none;stroke-width:1px;stroke-linecap:butt;stroke-linejoin:miter;stroke-opacity:1"
       x="784.60931"
       y="394.69229"
       id="text5487-4-7-7"
       sodipodi:linespacing="125%"
       inkscape:transform-center-x="26"
       inkscape:transform-center-y="76.000006"><tspan
         sodipodi:role="line"
         id="tspan5489-5-74-2"
         x="784.60931"
         y="394.69229">4</tspan></text>
    <text
       xml:space="preserve"
       style="font-style:normal;font-weight:normal;font-size:40px;line-height:125%;font-family:sans-serif;letter-spacing:0px;word-spacing:0px;fill:#000000;fill-opacity:1;stroke:none;stroke-width:1px;stroke-linecap:butt;stroke-linejoin:miter;stroke-opacity:1"
       x="826.60931"
       y="394.19229"
       id="text5487-4-5-8"
       sodipodi:linespacing="125%"><tspan
         sodipodi:role="line"
         id="tspan5489-5-8-8"
         x="826.60931"
         y="394.19229">5</tspan></text>
    <text
       xml:space="preserve"
       style="font-style:normal;font-weight:normal;font-size:40px;line-height:125%;font-family:sans-serif;letter-spacing:0px;word-spacing:0px;fill:#000000;fill-opacity:1;stroke:none;stroke-width:1px;stroke-linecap:butt;stroke-linejoin:miter;stroke-opacity:1"
       x="866.48047"
       y="393.65909"
       id="text5487-4-5-8-5"
       sodipodi:linespacing="125%"><tspan
         sodipodi:role="line"
         id="tspan5489-5-8-8-0"
         x="866.48047"
         y="393.65909">6</tspan></text>
    <text
       xml:space="preserve"
       style="font-style:normal;font-weight:normal;font-size:40px;line-height:125%;font-family:sans-serif;letter-spacing:0px;word-spacing:0px;fill:#000000;fill-opacity:1;stroke:none;stroke-width:1px;stroke-linecap:butt;stroke-linejoin:miter;stroke-opacity:1"
       x="28.5"
       y="369.36221"
       id="text5728"
       sodipodi:linespacing="125%"
       inkscape:export-xdpi="90"
       inkscape:export-ydpi="90"><tspan
         sodipodi:role="line"
         x="28.5"
         y="369.36221"
         id="tspan5732"
         style="font-size:25px">Persistent</tspan><tspan
         sodipodi:role="line"
         x="28.5"
         y="400.61221"
         style="font-size:25px"
         id="tspan5761">Data Structure</tspan></text>
    <text
       xml:space="preserve"
       style="font-style:normal;font-weight:normal;font-size:40px;line-height:125%;font-family:sans-serif;letter-spacing:0px;word-spacing:0px;fill:#000000;fill-opacity:1;stroke:none;stroke-width:1px;stroke-linecap:butt;stroke-linejoin:miter;stroke-opacity:1"
       x="26.744385"
       y="480.55728"
       id="text5728-6"
       sodipodi:linespacing="125%"
       inkscape:export-xdpi="90"
       inkscape:export-ydpi="90"><tspan
         sodipodi:role="line"
         x="26.744385"
         y="480.55728"
         id="tspan5732-9"
         style="font-size:25px">Internal</tspan><tspan
         sodipodi:role="line"
         x="26.744385"
         y="511.80728"
         style="font-size:25px"
         id="tspan5757">representation</tspan></text>
    <text
       xml:space="preserve"
       style="font-style:normal;font-weight:normal;font-size:25px;line-height:125%;font-family:sans-serif;letter-spacing:0px;word-spacing:0px;fill:#000000;fill-opacity:1;stroke:none;stroke-width:1px;stroke-linecap:butt;stroke-linejoin:miter;stroke-opacity:1"
       x="555.5"
       y="372.36221"
       id="text5763"
       sodipodi:linespacing="125%"><tspan
         sodipodi:role="line"
         id="tspan5765"
         x="555.5"
         y="372.36221">Add a</tspan><tspan
         sodipodi:role="line"
         x="555.5"
         y="403.61221"
         id="tspan5767">Value</tspan></text>
    <path
       style="fill:none;fill-rule:evenodd;stroke:#000000;stroke-width:2;stroke-linecap:butt;stroke-linejoin:miter;stroke-miterlimit:4;stroke-dasharray:none;stroke-opacity:1"
       d="m 670.44952,448.83051 -19.44906,15.56362 c 0.0859,-0.0441 0.1738,-0.0863 0.25306,-0.13773 0.93562,-0.60657 3.59369,-2.1336 4.19498,-2.71969 0.16879,-0.16452 0.0983,-0.46095 0.14753,-0.69146 l 1.678,-1.08788 c 0.21909,-0.087 0.46329,0.20663 0.69147,0.14753 0.32268,-0.0836 0.55929,-0.36262 0.839,-0.54394 0.27969,-0.18133 0.60029,-0.31128 0.83899,-0.54394 0.37743,-0.36787 0.60911,-0.86753 0.98653,-1.23541 0.80495,-0.78458 2.50556,-0.87827 2.66493,-2.32519 0.35949,-0.3854 0.58928,-0.88903 0.98653,-1.2354 0.50248,-0.43813 1.11861,-0.72522 1.678,-1.08788 0.27969,-0.18134 0.63099,-0.28346 0.83899,-0.54394 0.14708,-0.18418 4.5e-4,-0.50729 0.14753,-0.69147 0.94177,-1.17934 3.72065,-0.34497 3.50352,-2.86722 z m -19.44906,15.56362 c -0.21719,0.11148 -0.43878,0.21914 -0.58786,0.40581 -0.0372,0.0466 -0.0483,0.0806 -0.074,0.12201 l 0.66181,-0.52783 z m -0.66181,0.52782 -1.26679,1.01385 c 0.11911,0.0601 0.24068,0.12896 0.35423,0.0995 1.59961,-0.41432 0.46843,-0.39769 0.91256,-1.1134 z m -1.26679,1.01385 c -0.12026,-0.0606 -0.23789,-0.11241 -0.33724,-0.048 -0.11534,0.0748 -0.0984,0.23483 -0.0918,0.39181 l 0.42884,-0.34387 z m -0.42884,0.34387 -1.73393,1.38749 c 0.59153,-0.3835 0.81451,-0.53954 0.96986,-0.65182 0.004,-0.003 0.008,-0.007 0.0122,-0.009 0.0155,-0.0112 0.0881,-0.0576 0.10007,-0.0665 -0.006,0.003 -0.0105,0.006 -0.0158,0.009 -0.032,0.0208 0.008,-0.0153 -0.0575,0.0357 0.0191,-0.0121 0.0375,-0.0246 0.0575,-0.0357 0.0456,-0.0296 0.10103,-0.0719 0.0158,-0.009 0.20736,-0.11018 0.45216,-0.17989 0.59607,-0.36011 0.0613,-0.0768 0.0607,-0.18738 0.0558,-0.29965 z m -0.76407,0.73567 c -0.0463,0.0332 -0.0951,0.0631 -0.13086,0.10788 -0.001,0.002 -3.3e-4,0.006 -0.002,0.008 0.0455,-0.0405 0.0901,-0.0816 0.13249,-0.11551 z m -0.13249,0.11552 c -0.28251,0.25132 -0.56736,0.59391 -0.1459,0.68383 0.22825,0.0487 0.007,-0.49432 0.1459,-0.68383 z"
       id="path4473-6"
       inkscape:connector-curvature="0" />
    <ellipse
       style="fill:#ff0000;fill-rule:evenodd;stroke:#000000;stroke-width:1px;stroke-linecap:butt;stroke-linejoin:miter;stroke-opacity:1"
       id="path4476-2"
       cx="698.09406"
       cy="434.86221"
       rx="7.75"
       ry="6.5" />
    <ellipse
       style="fill:#000000;fill-rule:evenodd;stroke:#000000;stroke-width:1px;stroke-linecap:butt;stroke-linejoin:miter;stroke-opacity:1"
       id="path4476-7-21"
       cx="632.84406"
       cy="488.86218"
       rx="7.75"
       ry="6.5" />
    <ellipse
       style="fill:#000000;fill-rule:evenodd;stroke:#000000;stroke-width:1px;stroke-linecap:butt;stroke-linejoin:miter;stroke-opacity:1"
       id="path4476-7-2-9"
       cx="581.51141"
       cy="546.86249"
       rx="7.75"
       ry="6.5" />
    <path
       style="fill:none;fill-rule:evenodd;stroke:#000000;stroke-width:2;stroke-linecap:butt;stroke-linejoin:miter;stroke-miterlimit:4;stroke-dasharray:none;stroke-opacity:1"
       d="m 570.65286,561.41604 -11.04603,22.3266 c 0.0592,-0.0762 0.12101,-0.15172 0.17111,-0.23179 0.59147,-0.94525 2.35478,-3.45282 2.65192,-4.23815 0.0834,-0.22045 -0.10574,-0.45931 -0.15862,-0.68901 l 1.06078,-1.69526 c 0.16178,-0.17141 0.50721,-0.009 0.689,-0.15862 0.2571,-0.21216 0.35357,-0.56507 0.53039,-0.84764 0.17681,-0.28257 0.41242,-0.53587 0.53038,-0.84763 0.18652,-0.49294 0.18525,-1.04369 0.37176,-1.53663 0.3978,-1.05133 1.89936,-1.85517 1.43209,-3.23381 0.16286,-0.50124 0.1582,-1.0548 0.37178,-1.53664 0.27015,-0.60947 0.70714,-1.13011 1.06076,-1.69525 0.17681,-0.28259 0.45201,-0.52365 0.53039,-0.84763 0.0554,-0.2291 -0.21405,-0.45993 -0.15863,-0.68902 0.3549,-1.46691 3.22599,-1.88555 1.96292,-4.07952 z m -11.04603,22.3266 c -0.1497,0.19285 -0.305,0.38409 -0.36118,0.61629 -0.0141,0.0579 -0.01,0.0934 -0.0155,0.14184 l 0.37662,-0.75812 z m -0.37662,0.75813 -0.71941,1.45433 c 0.13333,0.004 0.27263,0.0151 0.36308,-0.0596 1.27448,-1.05171 0.25639,-0.55843 0.35632,-1.39479 z m -0.71941,1.45433 c -0.13461,-0.004 -0.26311,-10e-4 -0.32593,0.099 -0.0729,0.11653 0.0101,0.25441 0.0825,0.39388 l 0.24326,-0.49292 z m -0.24327,0.49292 -0.9848,1.99043 c 0.37395,-0.59762 0.51006,-0.83329 0.60337,-1.00072 0.002,-0.005 0.004,-0.009 0.007,-0.0136 0.009,-0.0167 0.0555,-0.0894 0.0626,-0.10256 -0.004,0.005 -0.007,0.01 -0.0107,0.0145 -0.0203,0.0324 10e-4,-0.0174 -0.037,0.0566 0.0122,-0.019 0.0235,-0.0381 0.037,-0.0566 0.0288,-0.0461 0.0612,-0.10787 0.0107,-0.0145 0.14134,-0.18751 0.33372,-0.35418 0.38795,-0.57834 0.0231,-0.0955 -0.0242,-0.19549 -0.0761,-0.29513 z m -0.38143,0.98971 c -0.028,0.0496 -0.0595,0.0973 -0.073,0.15309 -5.3e-4,0.002 0.002,0.006 0.002,0.008 0.0242,-0.056 0.0472,-0.11204 0.0712,-0.1607 z m -0.0712,0.1607 c -0.14978,0.34719 -0.26308,0.77808 0.15687,0.6814 0.22744,-0.0524 -0.20217,-0.45115 -0.15687,-0.6814 z"
       id="path4473-1-2-0"
       inkscape:connector-curvature="0" />
    <path
       style="fill:none;fill-rule:evenodd;stroke:#000000;stroke-width:2;stroke-linecap:butt;stroke-linejoin:miter;stroke-miterlimit:4;stroke-dasharray:none;stroke-opacity:1"
       d="m 590.03523,562.98323 11.04603,22.3266 c -0.0592,-0.0762 -0.12101,-0.15172 -0.17111,-0.23179 -0.59147,-0.94525 -2.35478,-3.45282 -2.65192,-4.23815 -0.0834,-0.22045 0.10574,-0.45931 0.15862,-0.68901 l -1.06078,-1.69526 c -0.16178,-0.17141 -0.50721,-0.009 -0.689,-0.15862 -0.2571,-0.21216 -0.35357,-0.56507 -0.53039,-0.84764 -0.17681,-0.28257 -0.41242,-0.53587 -0.53038,-0.84763 -0.18652,-0.49294 -0.18525,-1.04369 -0.37176,-1.53663 -0.3978,-1.05133 -1.89936,-1.85517 -1.43209,-3.23381 -0.16286,-0.50124 -0.1582,-1.0548 -0.37178,-1.53664 -0.27015,-0.60947 -0.70714,-1.13011 -1.06076,-1.69525 -0.17681,-0.28259 -0.45201,-0.52365 -0.53039,-0.84763 -0.0554,-0.2291 0.21405,-0.45993 0.15863,-0.68902 -0.3549,-1.46691 -3.22599,-1.88555 -1.96292,-4.07952 z m 11.04603,22.3266 c 0.1497,0.19285 0.305,0.38409 0.36118,0.61629 0.0141,0.0579 0.01,0.0934 0.0155,0.14184 l -0.37662,-0.75812 z m 0.37662,0.75813 0.71941,1.45433 c -0.13333,0.004 -0.27263,0.0151 -0.36308,-0.0596 -1.27448,-1.05171 -0.25639,-0.55843 -0.35632,-1.39479 z m 0.71941,1.45433 c 0.13461,-0.004 0.26311,-10e-4 0.32593,0.099 0.0729,0.11653 -0.0101,0.25441 -0.0825,0.39388 l -0.24326,-0.49292 z m 0.24327,0.49292 0.9848,1.99043 c -0.37395,-0.59762 -0.51006,-0.83329 -0.60337,-1.00072 -0.002,-0.005 -0.004,-0.009 -0.007,-0.0136 -0.009,-0.0167 -0.0555,-0.0894 -0.0626,-0.10256 0.004,0.005 0.007,0.01 0.0107,0.0145 0.0203,0.0324 -0.001,-0.0174 0.037,0.0566 -0.0122,-0.019 -0.0235,-0.0381 -0.037,-0.0566 -0.0288,-0.0461 -0.0612,-0.10787 -0.0107,-0.0145 -0.14134,-0.18751 -0.33372,-0.35418 -0.38795,-0.57834 -0.0231,-0.0955 0.0242,-0.19549 0.0761,-0.29513 z m 0.38143,0.98971 c 0.028,0.0496 0.0595,0.0973 0.073,0.15309 5.3e-4,0.002 -0.002,0.006 -0.002,0.008 -0.0242,-0.056 -0.0472,-0.11204 -0.0712,-0.1607 z m 0.0712,0.1607 c 0.14978,0.34719 0.26308,0.77808 -0.15687,0.6814 -0.22744,-0.0524 0.20217,-0.45115 0.15687,-0.6814 z"
       id="path4473-1-6-0-5"
       inkscape:connector-curvature="0" />
    <ellipse
       style="fill:#000000;fill-rule:evenodd;stroke:#000000;stroke-width:1px;stroke-linecap:butt;stroke-linejoin:miter;stroke-opacity:1"
       id="path4476-7-4-5"
       cx="672.01141"
       cy="549.36249"
       rx="7.75"
       ry="6.5" />
    <path
       style="fill:none;fill-rule:evenodd;stroke:#000000;stroke-width:2;stroke-linecap:butt;stroke-linejoin:miter;stroke-miterlimit:4;stroke-dasharray:none;stroke-opacity:1"
       d="m 661.15286,563.91604 -11.04603,22.3266 c 0.0592,-0.0762 0.12101,-0.15172 0.17111,-0.23179 0.59147,-0.94525 2.35478,-3.45282 2.65192,-4.23815 0.0834,-0.22045 -0.10574,-0.45931 -0.15862,-0.68901 l 1.06078,-1.69526 c 0.16178,-0.17141 0.50721,-0.009 0.689,-0.15862 0.2571,-0.21216 0.35357,-0.56507 0.53039,-0.84764 0.17681,-0.28257 0.41242,-0.53587 0.53038,-0.84763 0.18652,-0.49294 0.18525,-1.04369 0.37176,-1.53663 0.3978,-1.05133 1.89936,-1.85517 1.43209,-3.23381 0.16286,-0.50124 0.1582,-1.0548 0.37178,-1.53664 0.27015,-0.60947 0.70714,-1.13011 1.06076,-1.69525 0.17681,-0.28259 0.45201,-0.52365 0.53039,-0.84763 0.0554,-0.2291 -0.21405,-0.45993 -0.15863,-0.68902 0.3549,-1.46691 3.22599,-1.88555 1.96292,-4.07952 z m -11.04603,22.3266 c -0.1497,0.19285 -0.305,0.38409 -0.36118,0.61629 -0.0141,0.0579 -0.01,0.0934 -0.0155,0.14184 l 0.37662,-0.75812 z m -0.37662,0.75813 -0.71941,1.45433 c 0.13333,0.004 0.27263,0.0151 0.36308,-0.0596 1.27448,-1.05171 0.25639,-0.55843 0.35632,-1.39479 z m -0.71941,1.45433 c -0.13461,-0.004 -0.26311,-10e-4 -0.32593,0.099 -0.0729,0.11653 0.0101,0.25441 0.0825,0.39388 l 0.24326,-0.49292 z m -0.24327,0.49292 -0.9848,1.99043 c 0.37395,-0.59762 0.51006,-0.83329 0.60337,-1.00072 0.002,-0.005 0.004,-0.009 0.007,-0.0136 0.009,-0.0167 0.0555,-0.0894 0.0626,-0.10256 -0.004,0.005 -0.007,0.01 -0.0107,0.0145 -0.0203,0.0324 10e-4,-0.0174 -0.037,0.0566 0.0122,-0.019 0.0235,-0.0381 0.037,-0.0566 0.0288,-0.0461 0.0612,-0.10787 0.0107,-0.0145 0.14134,-0.18751 0.33372,-0.35418 0.38795,-0.57834 0.0231,-0.0955 -0.0242,-0.19549 -0.0761,-0.29513 z m -0.38143,0.98971 c -0.028,0.0496 -0.0595,0.0973 -0.073,0.15309 -5.3e-4,0.002 0.002,0.006 0.002,0.008 0.0242,-0.056 0.0472,-0.11204 0.0712,-0.1607 z m -0.0712,0.1607 c -0.14978,0.34719 -0.26308,0.77808 0.15687,0.6814 0.22744,-0.0524 -0.20217,-0.45115 -0.15687,-0.6814 z"
       id="path4473-1-0-0"
       inkscape:connector-curvature="0" />
    <path
       style="fill:none;fill-rule:evenodd;stroke:#000000;stroke-width:2;stroke-linecap:butt;stroke-linejoin:miter;stroke-miterlimit:4;stroke-dasharray:none;stroke-opacity:1"
       d="m 680.53523,565.48323 11.04603,22.3266 c -0.0592,-0.0762 -0.12101,-0.15172 -0.17111,-0.23179 -0.59147,-0.94525 -2.35478,-3.45282 -2.65192,-4.23815 -0.0834,-0.22045 0.10574,-0.45931 0.15862,-0.68901 l -1.06078,-1.69526 c -0.16178,-0.17141 -0.50721,-0.009 -0.689,-0.15862 -0.2571,-0.21216 -0.35357,-0.56507 -0.53039,-0.84764 -0.17681,-0.28257 -0.41242,-0.53587 -0.53038,-0.84763 -0.18652,-0.49294 -0.18525,-1.04369 -0.37176,-1.53663 -0.3978,-1.05133 -1.89936,-1.85517 -1.43209,-3.23381 -0.16286,-0.50124 -0.1582,-1.0548 -0.37178,-1.53664 -0.27015,-0.60947 -0.70714,-1.13011 -1.06076,-1.69525 -0.17681,-0.28259 -0.45201,-0.52365 -0.53039,-0.84763 -0.0554,-0.2291 0.21405,-0.45993 0.15863,-0.68902 -0.3549,-1.46691 -3.22599,-1.88555 -1.96292,-4.07952 z m 11.04603,22.3266 c 0.1497,0.19285 0.305,0.38409 0.36118,0.61629 0.0141,0.0579 0.01,0.0934 0.0155,0.14184 l -0.37662,-0.75812 z m 0.37662,0.75813 0.71941,1.45433 c -0.13333,0.004 -0.27263,0.0151 -0.36308,-0.0596 -1.27448,-1.05171 -0.25639,-0.55843 -0.35632,-1.39479 z m 0.71941,1.45433 c 0.13461,-0.004 0.26311,-10e-4 0.32593,0.099 0.0729,0.11653 -0.0101,0.25441 -0.0825,0.39388 l -0.24326,-0.49292 z m 0.24327,0.49292 0.9848,1.99043 c -0.37395,-0.59762 -0.51006,-0.83329 -0.60337,-1.00072 -0.002,-0.005 -0.004,-0.009 -0.007,-0.0136 -0.009,-0.0167 -0.0555,-0.0894 -0.0626,-0.10256 0.004,0.005 0.007,0.01 0.0107,0.0145 0.0203,0.0324 -0.001,-0.0174 0.037,0.0566 -0.0122,-0.019 -0.0235,-0.0381 -0.037,-0.0566 -0.0288,-0.0461 -0.0612,-0.10787 -0.0107,-0.0145 -0.14134,-0.18751 -0.33372,-0.35418 -0.38795,-0.57834 -0.0231,-0.0955 0.0242,-0.19549 0.0761,-0.29513 z m 0.38143,0.98971 c 0.028,0.0496 0.0595,0.0973 0.073,0.15309 5.3e-4,0.002 -0.002,0.006 -0.002,0.008 -0.0242,-0.056 -0.0472,-0.11204 -0.0712,-0.1607 z m 0.0712,0.1607 c 0.14978,0.34719 0.26308,0.77808 -0.15687,0.6814 -0.22744,-0.0524 0.20217,-0.45115 0.15687,-0.6814 z"
       id="path4473-1-6-6-3"
       inkscape:connector-curvature="0" />
    <ellipse
       style="fill:#000000;fill-rule:evenodd;stroke:#000000;stroke-width:1px;stroke-linecap:butt;stroke-linejoin:miter;stroke-opacity:1"
       id="path4476-7-8-8"
       cx="753.51141"
       cy="489.86249"
       rx="7.75"
       ry="6.5" />
    <path
       style="fill:none;fill-rule:evenodd;stroke:#000000;stroke-width:2;stroke-linecap:butt;stroke-linejoin:miter;stroke-miterlimit:4;stroke-dasharray:none;stroke-opacity:1"
       d="m 742.65286,504.41604 -11.04603,22.3266 c 0.0592,-0.0762 0.12101,-0.15172 0.17111,-0.23179 0.59147,-0.94525 2.35478,-3.45282 2.65192,-4.23815 0.0834,-0.22045 -0.10574,-0.45931 -0.15862,-0.68901 l 1.06078,-1.69526 c 0.16178,-0.17141 0.50721,-0.009 0.689,-0.15862 0.2571,-0.21216 0.35357,-0.56507 0.53039,-0.84764 0.17681,-0.28257 0.41242,-0.53587 0.53038,-0.84763 0.18652,-0.49294 0.18525,-1.04369 0.37176,-1.53663 0.3978,-1.05133 1.89936,-1.85517 1.43209,-3.23381 0.16286,-0.50124 0.1582,-1.0548 0.37178,-1.53664 0.27015,-0.60947 0.70714,-1.13011 1.06076,-1.69525 0.17681,-0.28259 0.45201,-0.52365 0.53039,-0.84763 0.0554,-0.2291 -0.21405,-0.45993 -0.15863,-0.68902 0.3549,-1.46691 3.22599,-1.88555 1.96292,-4.07952 z m -11.04603,22.3266 c -0.1497,0.19285 -0.305,0.38409 -0.36118,0.61629 -0.0141,0.0579 -0.01,0.0934 -0.0155,0.14184 l 0.37662,-0.75812 z m -0.37662,0.75813 -0.71941,1.45433 c 0.13333,0.004 0.27263,0.0151 0.36308,-0.0596 1.27448,-1.05171 0.25639,-0.55843 0.35632,-1.39479 z m -0.71941,1.45433 c -0.13461,-0.004 -0.26311,-10e-4 -0.32593,0.099 -0.0729,0.11653 0.0101,0.25441 0.0825,0.39388 l 0.24326,-0.49292 z m -0.24327,0.49292 -0.9848,1.99043 c 0.37395,-0.59762 0.51006,-0.83329 0.60337,-1.00072 0.002,-0.005 0.004,-0.009 0.007,-0.0136 0.009,-0.0167 0.0555,-0.0894 0.0626,-0.10256 -0.004,0.005 -0.007,0.01 -0.0107,0.0145 -0.0203,0.0324 10e-4,-0.0174 -0.037,0.0566 0.0122,-0.019 0.0235,-0.0381 0.037,-0.0566 0.0288,-0.0461 0.0612,-0.10787 0.0107,-0.0145 0.14134,-0.18751 0.33372,-0.35418 0.38795,-0.57834 0.0231,-0.0955 -0.0242,-0.19549 -0.0761,-0.29513 z m -0.38143,0.98971 c -0.028,0.0496 -0.0595,0.0973 -0.073,0.15309 -5.3e-4,0.002 0.002,0.006 0.002,0.008 0.0242,-0.056 0.0472,-0.11204 0.0712,-0.1607 z m -0.0712,0.1607 c -0.14978,0.34719 -0.26308,0.77808 0.15687,0.6814 0.22744,-0.0524 -0.20217,-0.45115 -0.15687,-0.6814 z"
       id="path4473-1-1-5"
       inkscape:connector-curvature="0" />
    <path
       style="fill:none;fill-rule:evenodd;stroke:#000000;stroke-width:2;stroke-linecap:butt;stroke-linejoin:miter;stroke-miterlimit:4;stroke-dasharray:none;stroke-opacity:1"
       d="m 615.72072,506.23579 -15.77343,19.27929 c 0.0748,-0.061 0.15196,-0.12071 0.21875,-0.1875 0.78846,-0.78845 3.06939,-2.8365 3.53515,-3.53515 0.13074,-0.19612 0,-0.47133 0,-0.70703 l 1.41407,-1.41406 c 0.19612,-0.13075 0.49621,0.10541 0.70703,0 0.29814,-0.14907 0.47132,-0.47134 0.70703,-0.70704 0.2357,-0.2357 0.52213,-0.42968 0.70703,-0.70703 0.29236,-0.43853 0.41468,-0.97553 0.70703,-1.41406 0.62352,-0.93528 2.26715,-1.38175 2.12109,-2.83008 0.27116,-0.45193 0.39081,-0.99242 0.70704,-1.41406 0.4,-0.53333 0.94266,-0.94266 1.41406,-1.41406 0.2357,-0.23571 0.55796,-0.40889 0.70703,-0.70703 0.10541,-0.21082 -0.10541,-0.49622 0,-0.70704 0.67495,-1.34989 3.56677,-1.11373 2.82812,-3.53515 z m -15.77343,19.27929 c -0.18915,0.15435 -0.3834,0.30587 -0.49024,0.51954 -0.0267,0.0533 -0.0304,0.0889 -0.0469,0.13476 l 0.53711,-0.6543 z m -0.53711,0.6543 -1.02735,1.25586 c 0.12902,0.0339 0.26229,0.0759 0.36719,0.0234 1.47795,-0.73897 0.37514,-0.48668 0.66016,-1.2793 z m -1.02735,1.25586 c -0.13026,-0.0342 -0.25611,-0.0603 -0.33984,0.0234 -0.0972,0.0972 -0.0472,0.25019 -0.008,0.40234 l 0.34765,-0.42578 z m -0.34765,0.42578 -1.40625,1.71875 c 0.49849,-0.49849 0.684,-0.69762 0.8125,-0.83984 0.003,-0.004 0.006,-0.008 0.01,-0.0117 0.0128,-0.0142 0.0741,-0.0747 0.084,-0.0859 -0.005,0.004 -0.009,0.008 -0.0137,0.0117 -0.027,0.027 0.005,-0.0167 -0.0488,0.0469 0.0162,-0.0158 0.0315,-0.0319 0.0488,-0.0469 0.0384,-0.0385 0.0838,-0.0914 0.0137,-0.0117 0.1798,-0.15102 0.40467,-0.27028 0.50781,-0.47656 0.0439,-0.0879 0.0203,-0.19593 -0.008,-0.30469 z m -0.59375,0.87891 c -0.0384,0.0421 -0.0798,0.0815 -0.10547,0.13281 -10e-4,0.002 9.5e-4,0.006 0,0.008 0.0361,-0.0491 0.0711,-0.0986 0.10547,-0.14062 z m -0.10547,0.14062 c -0.22385,0.30474 -0.43094,0.69922 0,0.69922 0.23339,0 -0.0958,-0.485 0,-0.69922 z"
       id="path4473-3-2"
       inkscape:connector-curvature="0" />
    <path
       style="fill:none;fill-rule:evenodd;stroke:#000000;stroke-width:2;stroke-linecap:butt;stroke-linejoin:miter;stroke-miterlimit:4;stroke-dasharray:none;stroke-opacity:1"
       d="m 642.46736,509.73579 15.77342,19.27929 c -0.0748,-0.061 -0.15196,-0.12071 -0.21875,-0.1875 -0.78846,-0.78845 -3.06939,-2.8365 -3.53515,-3.53515 -0.13074,-0.19612 0,-0.47133 0,-0.70703 l -1.41407,-1.41406 c -0.19612,-0.13075 -0.49621,0.10541 -0.70703,0 -0.29813,-0.14907 -0.47131,-0.47134 -0.70702,-0.70704 -0.2357,-0.2357 -0.52213,-0.42968 -0.70703,-0.70703 -0.29236,-0.43853 -0.41468,-0.97553 -0.70703,-1.41406 -0.62352,-0.93528 -2.26715,-1.38175 -2.12109,-2.83008 -0.27116,-0.45193 -0.39081,-0.99242 -0.70704,-1.41406 -0.4,-0.53333 -0.94266,-0.94266 -1.41406,-1.41406 -0.2357,-0.23571 -0.55796,-0.40889 -0.70703,-0.70703 -0.10541,-0.21082 0.10541,-0.49622 0,-0.70704 -0.67495,-1.34989 -3.56677,-1.11373 -2.82812,-3.53515 z m 15.77342,19.27929 c 0.18915,0.15435 0.3834,0.30587 0.49024,0.51954 0.0267,0.0533 0.0304,0.0889 0.0469,0.13476 l -0.53711,-0.6543 z m 0.53711,0.6543 1.02735,1.25586 c -0.12902,0.0339 -0.26229,0.0759 -0.36719,0.0234 -1.47795,-0.73897 -0.37514,-0.48668 -0.66016,-1.2793 z m 1.02735,1.25586 c 0.13026,-0.0342 0.25611,-0.0603 0.33984,0.0234 0.0972,0.0972 0.0472,0.25019 0.008,0.40234 l -0.34765,-0.42578 z m 0.34765,0.42578 1.40625,1.71875 c -0.49849,-0.49849 -0.684,-0.69762 -0.8125,-0.83984 -0.003,-0.004 -0.006,-0.008 -0.01,-0.0117 -0.0128,-0.0142 -0.0741,-0.0747 -0.084,-0.0859 0.005,0.004 0.009,0.008 0.0137,0.0117 0.027,0.027 -0.005,-0.0167 0.0488,0.0469 -0.0162,-0.0158 -0.0315,-0.0319 -0.0488,-0.0469 -0.0384,-0.0385 -0.0838,-0.0914 -0.0137,-0.0117 -0.1798,-0.15102 -0.40467,-0.27028 -0.50781,-0.47656 -0.0439,-0.0879 -0.0203,-0.19593 0.008,-0.30469 z m 0.59375,0.87891 c 0.0384,0.0421 0.0798,0.0815 0.10547,0.13281 10e-4,0.002 -9.5e-4,0.006 0,0.008 -0.0361,-0.0491 -0.0711,-0.0986 -0.10547,-0.14062 z m 0.10547,0.14062 c 0.22385,0.30474 0.43094,0.69922 0,0.69922 -0.23339,0 0.0958,-0.485 0,-0.69922 z"
       id="path4473-7-3-9"
       inkscape:connector-curvature="0" />
    <path
       style="fill:none;fill-rule:evenodd;stroke:#000000;stroke-width:2;stroke-linecap:butt;stroke-linejoin:miter;stroke-miterlimit:4;stroke-dasharray:none;stroke-opacity:1"
       d="m 716.76659,448.84532 19.44906,15.56362 c -0.0859,-0.0441 -0.1738,-0.0863 -0.25306,-0.13773 -0.93562,-0.60657 -3.59369,-2.1336 -4.19498,-2.71969 -0.16879,-0.16452 -0.0983,-0.46095 -0.14753,-0.69146 l -1.678,-1.08788 c -0.21909,-0.087 -0.46329,0.20663 -0.69147,0.14753 -0.32268,-0.0836 -0.55929,-0.36262 -0.839,-0.54394 -0.27969,-0.18133 -0.60029,-0.31128 -0.83899,-0.54394 -0.37743,-0.36787 -0.60911,-0.86753 -0.98653,-1.23541 -0.80495,-0.78458 -2.50556,-0.87827 -2.66493,-2.32519 -0.35949,-0.3854 -0.58928,-0.88903 -0.98653,-1.2354 -0.50248,-0.43813 -1.11861,-0.72522 -1.678,-1.08788 -0.27969,-0.18134 -0.63099,-0.28346 -0.83899,-0.54394 -0.14708,-0.18418 -4.5e-4,-0.50729 -0.14753,-0.69147 -0.94177,-1.17934 -3.72065,-0.34497 -3.50352,-2.86722 z m 19.44906,15.56362 c 0.21719,0.11148 0.43878,0.21914 0.58786,0.40581 0.0372,0.0466 0.0483,0.0806 0.074,0.12201 l -0.66181,-0.52783 z m 0.66181,0.52782 1.26679,1.01385 c -0.11911,0.0601 -0.24068,0.12896 -0.35423,0.0995 -1.59961,-0.41432 -0.46843,-0.39769 -0.91256,-1.1134 z m 1.26679,1.01385 c 0.12026,-0.0606 0.23789,-0.11241 0.33724,-0.048 0.11534,0.0748 0.0984,0.23483 0.0918,0.39181 l -0.42884,-0.34387 z m 0.42884,0.34387 1.73393,1.38749 c -0.59153,-0.3835 -0.81451,-0.53954 -0.96986,-0.65182 -0.004,-0.003 -0.008,-0.007 -0.0122,-0.009 -0.0155,-0.0112 -0.0881,-0.0576 -0.10007,-0.0665 0.006,0.003 0.0105,0.006 0.0158,0.009 0.032,0.0208 -0.008,-0.0153 0.0575,0.0357 -0.0191,-0.0121 -0.0375,-0.0246 -0.0575,-0.0357 -0.0456,-0.0296 -0.10103,-0.0719 -0.0158,-0.009 -0.20736,-0.11018 -0.45216,-0.17989 -0.59607,-0.36011 -0.0613,-0.0768 -0.0607,-0.18738 -0.0558,-0.29965 z m 0.76407,0.73567 c 0.0463,0.0332 0.0951,0.0631 0.13086,0.10788 10e-4,0.002 3.3e-4,0.006 0.002,0.008 -0.0455,-0.0405 -0.0901,-0.0816 -0.13249,-0.11551 z m 0.13249,0.11552 c 0.28251,0.25132 0.56736,0.59391 0.1459,0.68383 -0.22825,0.0487 -0.007,-0.49432 -0.1459,-0.68383 z"
       id="path4473-2-4"
       inkscape:connector-curvature="0" />
    <text
       xml:space="preserve"
       style="font-style:normal;font-weight:normal;font-size:40px;line-height:125%;font-family:sans-serif;letter-spacing:0px;word-spacing:0px;fill:#000000;fill-opacity:1;stroke:none;stroke-width:1px;stroke-linecap:butt;stroke-linejoin:miter;stroke-opacity:1"
       x="774.76593"
       y="569.44226"
       id="text5487-0-7"
       sodipodi:linespacing="125%"><tspan
         sodipodi:role="line"
         id="tspan5489-7-2"
         x="774.76593"
         y="569.44226">6</tspan></text>
    <path
       style="fill:none;fill-rule:evenodd;stroke:#000000;stroke-width:2;stroke-linecap:butt;stroke-linejoin:miter;stroke-miterlimit:4;stroke-dasharray:none;stroke-opacity:1"
       d="m 764.12332,506.23579 15.77342,19.27929 c -0.0748,-0.061 -0.15196,-0.12071 -0.21875,-0.1875 -0.78846,-0.78845 -3.06939,-2.8365 -3.53515,-3.53515 -0.13074,-0.19612 0,-0.47133 0,-0.70703 l -1.41407,-1.41406 c -0.19612,-0.13075 -0.49621,0.10541 -0.70703,0 -0.29813,-0.14907 -0.47131,-0.47134 -0.70702,-0.70704 -0.2357,-0.2357 -0.52213,-0.42968 -0.70703,-0.70703 -0.29236,-0.43853 -0.41468,-0.97553 -0.70703,-1.41406 -0.62352,-0.93528 -2.26715,-1.38175 -2.12109,-2.83008 -0.27116,-0.45193 -0.39081,-0.99242 -0.70704,-1.41406 -0.4,-0.53333 -0.94266,-0.94266 -1.41406,-1.41406 -0.2357,-0.23571 -0.55796,-0.40889 -0.70703,-0.70703 -0.10541,-0.21082 0.10541,-0.49622 0,-0.70704 -0.67495,-1.34989 -3.56677,-1.11373 -2.82812,-3.53515 z m 15.77342,19.27929 c 0.18915,0.15435 0.3834,0.30587 0.49024,0.51954 0.0267,0.0533 0.0304,0.0889 0.0469,0.13476 l -0.53711,-0.6543 z m 0.53711,0.6543 1.02735,1.25586 c -0.12902,0.0339 -0.26229,0.0759 -0.36719,0.0234 -1.47795,-0.73897 -0.37514,-0.48668 -0.66016,-1.2793 z m 1.02735,1.25586 c 0.13026,-0.0342 0.25611,-0.0603 0.33984,0.0234 0.0972,0.0972 0.0472,0.25019 0.008,0.40234 l -0.34765,-0.42578 z m 0.34765,0.42578 1.40625,1.71875 c -0.49849,-0.49849 -0.684,-0.69762 -0.8125,-0.83984 -0.003,-0.004 -0.006,-0.008 -0.01,-0.0117 -0.0128,-0.0142 -0.0741,-0.0747 -0.084,-0.0859 0.005,0.004 0.009,0.008 0.0137,0.0117 0.027,0.027 -0.005,-0.0167 0.0488,0.0469 -0.0162,-0.0158 -0.0315,-0.0319 -0.0488,-0.0469 -0.0384,-0.0385 -0.0838,-0.0914 -0.0137,-0.0117 -0.1798,-0.15102 -0.40467,-0.27028 -0.50781,-0.47656 -0.0439,-0.0879 -0.0203,-0.19593 0.008,-0.30469 z m 0.59375,0.87891 c 0.0384,0.0421 0.0798,0.0815 0.10547,0.13281 10e-4,0.002 -9.5e-4,0.006 0,0.008 -0.0361,-0.0491 -0.0711,-0.0986 -0.10547,-0.14062 z m 0.10547,0.14062 c 0.22385,0.30474 0.43094,0.69922 0,0.69922 -0.23339,0 0.0958,-0.485 0,-0.69922 z"
       id="path4473-7-3-9-1"
       inkscape:connector-curvature="0" />
    <path
       style="fill:#008000;stroke:#000000;stroke-width:2;stroke-miterlimit:4;stroke-dasharray:none"
       id="path5877"
       d="m 553.45063,616.42029 c -1.88413,1.97487 -3.71529,3.99908 -5.59986,5.97393 -2.04445,2.17471 -4.14252,4.29794 -6.18496,6.47458 -2.24622,2.41792 -4.48274,4.83557 -6.87877,7.10647 -2.75793,2.45967 -5.77614,4.59128 -8.86825,6.60385 -5.55281,3.41046 -11.30597,6.46566 -17.09955,9.43855 -0.61957,0.32718 -1.24406,0.6452 -1.85871,0.98152 -0.62315,0.34096 -2.4687,1.40653 -1.85429,1.05009 9.72761,-5.64339 3.43656,-1.9589 2.27732,-1.28885 -2.73217,1.57921 -5.47619,3.13795 -8.20121,4.72944 -1.42237,0.8307 2.86208,-1.63134 4.29313,-2.44701 -6.00598,3.73275 -12.36609,6.81986 -18.52899,10.2694 -4.53743,2.57385 -9.23572,4.84333 -13.93529,7.10164 -3.91488,1.73219 -7.8252,3.46671 -11.80973,5.03275 -4.99982,1.69295 -10.01173,3.34732 -15.03301,4.97471 -5.42551,1.75689 -10.87499,3.43976 -16.29708,5.2085 -4.91487,1.48838 -9.89004,2.74754 -14.93881,3.68152 -5.67074,0.97383 -11.35669,1.85875 -17.04134,2.74904 -5.01336,0.85412 -10.0586,1.5446 -15.12199,2.02251 -3.86538,0.45695 -7.74756,0.71712 -11.63644,0.84741 -4.74062,0.13513 -9.48118,0.0437 -14.22011,-0.0972 -4.36601,-0.0603 -8.71279,-0.40723 -13.01672,-1.13578 -3.86568,-0.72001 -7.72635,-1.4553 -11.56745,-2.29831 -3.94806,-0.87985 -7.81788,-2.07886 -11.68679,-3.25152 -3.38495,-1.05434 -6.78759,-2.0545 -10.1418,-3.20403 -3.54414,-1.18253 -7.06572,-2.43094 -10.60742,-3.62058 -3.47184,-1.14102 -6.87538,-2.46489 -10.29493,-3.74942 -2.93844,-1.20351 -5.87946,-2.40052 -8.79057,-3.66847 -2.66181,-1.22089 -5.39649,-2.26628 -8.0968,-3.39607 -3.07224,-1.26688 -6.16686,-2.4791 -9.26067,-3.69295 -2.83293,-1.09326 -5.64019,-2.24836 -8.48772,-3.30413 -2.89122,-1.05322 -5.8092,-2.03071 -8.72635,-3.00913 -2.8086,-0.98401 -5.65988,-1.83605 -8.48795,-2.75986 -3.01467,-1.20836 -6.06434,-2.32393 -9.12774,-3.40154 -3.1255,-1.16671 -6.35534,-2.00445 -9.53385,-3.00693 -2.53579,-0.6273 -5.00546,-1.47906 -7.51382,-2.19984 -1.41994,-0.26555 -2.73337,-0.88742 -4.1205,-1.257 -0.79974,-0.27398 -0.40198,-0.14495 -1.19303,-0.3879 0,0 6.14099,-4.18243 6.14099,-4.18243 l 0,0 c 0.78872,0.2528 0.39388,0.12734 1.18451,0.37636 1.35967,0.43222 2.69149,0.95421 4.08263,1.28751 2.48666,0.76967 4.96322,1.56831 7.48021,2.23663 3.17578,1.0019 6.39038,1.88303 9.51212,3.05079 3.0692,1.08151 6.12952,2.18572 9.16654,3.35496 2.82477,0.92174 5.65923,1.81383 8.46968,2.77944 2.92495,0.98137 5.85085,1.96172 8.74795,3.02328 2.8444,1.06187 5.64676,2.22642 8.47514,3.32913 3.09693,1.22256 6.20358,2.42072 9.27925,3.69565 2.71393,1.10913 5.4461,2.1715 8.10856,3.40283 2.9047,1.25091 5.82276,2.47011 8.75646,3.65161 3.39616,1.30935 6.8018,2.59006 10.25562,3.7417 3.54396,1.19565 7.07565,2.42678 10.6236,3.61061 3.35495,1.1175 6.73976,2.14187 10.11533,3.19494 3.85074,1.17409 7.70523,2.36386 11.6445,3.20929 3.83735,0.82884 7.69352,1.55647 11.55531,2.26181 4.26311,0.68668 8.56618,1.02945 12.88437,1.11111 4.75972,0.14275 9.52032,0.15232 14.28026,-0.005 3.86725,-0.14594 7.72672,-0.41546 11.57265,-0.85524 5.02481,-0.49623 10.03439,-1.15447 15.01374,-1.9938 5.70612,-0.88021 11.40292,-1.81805 17.08961,-2.81462 5.01153,-0.96633 9.96162,-2.21708 14.83987,-3.72149 5.43079,-1.7599 10.88236,-3.45505 16.31126,-5.22018 5.02756,-1.64815 10.06698,-3.26217 15.04927,-5.04445 3.96974,-1.58689 7.87661,-3.32187 11.7767,-5.0722 4.67954,-2.25373 9.35614,-4.52034 13.86644,-7.10222 2.87079,-1.59521 5.77652,-3.12136 8.66689,-4.68037 0.61711,-0.33286 2.44645,-1.36985 1.84914,-1.00263 -1.42893,0.8785 -2.89705,1.69161 -4.34558,2.53742 2.69871,-1.57108 5.40129,-3.13553 8.09613,-4.71324 1.38993,-0.81374 -2.78475,1.61909 -4.18135,2.42131 -0.66358,0.38117 1.32018,-0.77439 1.98227,-1.15814 3.93174,-2.27887 7.82853,-4.64353 11.87401,-6.7231 1.86025,-0.95933 3.71832,-1.92208 5.56464,-2.90806 0.59914,-0.31996 2.37079,-1.32484 1.79442,-0.96547 -1.542,0.96143 -7.25547,4.22903 -2.70398,1.61896 3.0834,-1.9899 6.10426,-4.06775 8.887,-6.47023 2.40684,-2.24577 4.6622,-4.62491 6.88068,-7.05642 2.03522,-2.18354 4.13202,-4.30622 6.17715,-6.47998 1.87031,-1.95338 3.72082,-3.92606 5.50987,-5.95456 0,0 6.85819,-2.84076 6.85819,-2.84076 z"
       inkscape:connector-curvature="0" />
    <path
       style="fill:#008000;stroke:#000000;stroke-width:2;stroke-miterlimit:4;stroke-dasharray:none"
       id="path5879"
       d="m 600.48286,612.89687 c -0.30422,0.15139 -0.60879,0.30209 -0.91266,0.45417 -2.21589,1.10899 -4.38248,2.25269 3.92472,-2.32408 0.45225,-0.24916 -0.87924,0.54207 -1.30843,0.82914 -0.43621,0.29177 -0.86171,0.59935 -1.28699,0.90684 -0.43763,0.31642 -0.8677,0.64318 -1.30155,0.96476 -2.74773,2.03714 -5.23926,4.37795 -7.63118,6.8146 -2.77811,2.82778 -5.39456,5.80612 -7.87871,8.89368 -3.10326,3.9697 -5.93113,8.14575 -8.85038,12.25077 -3.8423,5.44446 -7.70649,10.87319 -11.58469,16.29212 -3.67208,5.24008 -7.51511,10.34799 -11.63106,15.24705 -3.2241,3.83346 -7.07984,7.02129 -11.06519,10.02112 -5.16551,3.79956 -10.52356,7.32761 -15.78588,10.99059 -7.19843,5.1995 -14.87158,9.69646 -22.76266,13.75963 -5.35107,2.59478 -10.88321,4.78978 -16.40332,6.99312 -4.8934,1.79685 -9.86425,3.37161 -14.80839,5.02097 -4.32208,1.48762 -8.70832,2.74692 -13.16427,3.75797 -3.8569,0.78814 -7.73018,1.48106 -11.62813,2.03111 -4.41024,0.52129 -8.84585,0.75978 -13.27626,1.03511 -5.49724,0.39375 -11.01312,0.39181 -16.51194,0.72101 -6.4032,0.48462 -12.82078,0.67555 -19.23937,0.79494 -4.26732,0.0512 -8.53827,0.15685 -12.80412,-0.0382 -1.20095,-0.0549 -5.68585,-0.37679 -6.87397,-0.46011 -5.69,-0.39799 -11.35485,-0.99038 -16.9723,-1.98198 -3.56893,-0.52463 -7.04992,-1.4588 -10.51585,-2.43405 -3.44692,-1.03459 -6.80473,-2.3346 -10.1224,-3.72303 -3.35444,-1.53269 -6.63799,-3.21281 -9.91549,-4.90204 -3.69703,-1.89627 -7.26133,-4.03275 -10.82374,-6.16718 -3.42642,-2.03152 -6.85333,-4.0627 -10.26071,-6.12607 -2.86415,-1.67945 -5.67771,-3.44111 -8.4229,-5.3084 -2.57234,-1.88649 -5.03499,-3.91074 -7.49809,-5.93542 -2.60533,-2.03264 -5.12831,-4.16356 -7.68689,-6.25361 -2.29862,-1.97926 -4.71288,-3.81502 -7.06446,-5.72916 -1.91877,-1.66712 -3.76276,-3.41453 -5.52055,-5.25011 -1.49179,-1.57492 -2.9104,-3.21718 -4.35579,-4.83485 -1.27326,-1.38119 -2.45109,-2.84645 -3.60163,-4.33015 -0.90555,-1.13396 -1.74252,-2.32136 -2.55422,-3.52365 -0.95428,-1.24169 -2.03511,-2.39065 -3.1031,-3.53711 -1.2188,-1.30086 -2.48233,-2.55839 -3.73597,-3.82534 -1.2744,-1.34404 -2.54766,-2.69181 -3.791,-4.06569 -0.7685,-0.98834 -1.5876,-1.92997 -2.41405,-2.86843 -0.43137,-0.43607 -0.88019,-0.85413 -1.2953,-1.30549 0,0 6.36838,-3.87242 6.36838,-3.87242 l 0,0 c 0.42606,0.44902 0.86729,0.8828 1.2916,1.33368 0.82215,0.93704 1.62957,1.88501 2.38984,2.87409 1.22289,1.37382 2.47017,2.72846 3.75801,4.04124 1.26636,1.26591 2.52256,2.54254 3.75375,3.84271 1.09618,1.17525 2.20599,2.35029 3.18494,3.62483 0.79809,1.19081 1.6174,2.36969 2.50642,3.4949 1.13579,1.47244 2.30368,2.92223 3.55611,4.29786 1.43321,1.61523 2.85672,3.23992 4.33133,4.81721 1.74027,1.80702 3.54666,3.54859 5.44416,5.19097 2.35339,1.91035 4.7539,3.76148 7.05272,5.7388 2.55678,2.09059 5.07178,4.23144 7.67856,6.26081 2.45238,2.01147 4.91727,4.00674 7.48942,5.86514 2.71846,1.87102 5.51815,3.6158 8.35255,5.30554 3.40403,2.06341 6.82706,4.0955 10.24802,6.13063 3.54963,2.1335 7.10985,4.25085 10.80892,6.11906 3.27157,1.67008 6.54321,3.34545 9.89842,4.84314 3.30539,1.36242 6.63864,2.66804 10.08252,3.6432 3.43553,0.95374 6.88592,1.8609 10.41255,2.41898 5.56841,0.98176 11.18396,1.60177 16.82493,1.9934 6.53916,0.44323 13.08703,0.65981 19.64177,0.44671 6.43385,-0.1364 12.86497,-0.36803 19.28286,-0.86028 5.50486,-0.30662 11.02387,-0.31657 16.52398,-0.73618 4.43937,-0.29995 8.88554,-0.56575 13.3018,-1.12517 3.88008,-0.57486 7.74066,-1.26549 11.5801,-2.06953 4.42783,-1.02834 8.7831,-2.31675 13.08578,-3.78488 4.93269,-1.63751 9.89065,-3.20843 14.7579,-5.03462 5.50511,-2.1924 11.01614,-4.39678 16.33078,-7.02596 0.92019,-0.48024 3.50438,-2.16467 2.76055,-1.44073 -0.92057,0.89596 -2.24013,1.2628 -3.30933,1.97484 -0.89631,0.59691 1.87019,-1.06877 2.78991,-1.62892 2.45969,-1.49806 3.1956,-2.04038 5.5709,-3.67818 0.92019,-0.63448 1.83804,-1.27237 2.75705,-1.90855 5.2325,-3.65618 10.56477,-7.17081 15.71814,-10.93826 3.98962,-2.96462 7.86689,-6.10289 11.13442,-9.87448 4.17119,-4.87101 8.05785,-9.96098 11.72486,-15.22297 3.86601,-5.41004 7.73153,-10.82026 11.54093,-16.27043 2.89794,-4.08941 5.68134,-8.26441 8.73018,-12.24368 2.46627,-3.10731 5.06622,-6.10522 7.83196,-8.95109 2.37474,-2.46195 4.83245,-4.84625 7.56744,-6.91247 4.20497,-3.17192 8.68207,-6.00376 13.52185,-8.12436 0,0 -5.83811,4.59086 -5.83811,4.59086 z"
       inkscape:connector-curvature="0" />
    <path
       style="fill:#008000;stroke:#000000;stroke-width:2;stroke-miterlimit:4;stroke-dasharray:none"
       id="path5881"
       d="m 650.03334,607.45682 c -1.33402,2.25343 -2.62819,4.53836 -3.78885,6.8867 -1.04239,2.18491 -2.00795,4.4006 -2.8797,6.65875 -1.11738,2.91308 -2.50926,5.70696 -3.80587,8.54158 -1.55641,3.27744 -3.01805,6.59464 -4.39472,9.95097 -1.40661,3.69584 -2.73091,7.42055 -4.16269,11.10723 -1.54082,3.84071 -3.14123,7.65978 -4.90729,11.40263 -2.51746,4.57175 -4.94252,9.19244 -7.38844,13.80277 -1.67536,3.37763 -3.62122,6.58234 -5.91167,9.5733 -1.87533,2.47335 -4.02085,4.71059 -6.19601,6.91701 -2.61496,2.68474 -5.46327,5.12827 -8.36267,7.49782 -3.15087,2.41116 -6.34223,4.76644 -9.67447,6.92119 -6.61648,4.02358 -13.43092,7.71632 -20.218,11.44361 -5.68073,3.05543 -11.21525,6.36872 -16.89039,9.43376 -6.07822,3.3952 -12.49661,6.09965 -19.04623,8.43132 -1.14555,0.40006 -2.28449,0.81958 -3.43664,1.20019 -2.34988,0.77627 -4.72415,1.47675 -7.08177,2.22917 -3.06969,0.97966 -6.11951,2.01511 -9.18641,3.00318 -5.53574,1.72546 -11.08166,3.41672 -16.63835,5.07332 -3.77376,1.14442 -7.50762,2.4134 -11.30683,3.47212 -3.01378,0.87071 -6.05031,1.52573 -9.17276,1.8245 -3.05276,0.39114 -6.12814,0.5374 -9.20227,0.62198 -3.33533,0.0734 -6.67173,0.0675 -10.00766,0.0648 -3.71693,0.0754 -7.42589,-0.0803 -11.13756,-0.2473 -3.04438,-0.14658 -6.04717,-0.64042 -9.04903,-1.13137 -3.08252,-0.5129 -6.10341,-1.327 -9.10775,-2.17406 -3.3775,-1.03787 -6.68755,-2.27472 -10.03083,-3.41432 -3.44065,-1.25178 -6.87732,-2.52138 -10.25336,-3.93964 -3.24174,-1.31582 -6.32631,-2.97545 -9.44685,-4.54854 -3.11015,-1.59806 -6.1604,-3.31263 -9.10664,-5.19602 -2.77462,-1.74284 -5.52947,-3.52332 -8.09623,-5.56333 -2.59395,-2.03933 -4.97186,-4.32338 -7.38525,-6.56705 -2.66786,-2.58901 -5.37487,-5.13717 -8.04282,-7.72623 -2.78793,-2.64148 -5.50804,-5.35076 -8.21645,-8.07361 -2.4599,-2.48298 -4.92986,-4.95593 -7.39653,-7.43217 -2.42279,-2.63633 -4.97726,-5.14432 -7.45211,-7.73102 -2.5722,-2.62509 -5.29365,-5.09516 -7.93669,-7.64724 -2.26713,-2.16759 -4.63924,-4.21977 -7.09652,-6.16798 -2.59234,-2.0418 -5.06158,-4.23301 -7.59972,-6.34092 -2.37112,-1.97142 -4.87046,-3.77085 -7.41422,-5.50983 -2.77662,-1.89913 -5.69706,-3.56367 -8.59723,-5.26227 -2.87258,-1.6871 -5.73124,-3.38961 -8.67006,-4.95983 -2.42578,-1.3339 -4.86606,-2.64001 -7.28635,-3.98377 -1.90068,-0.99422 -3.77748,-2.04511 -5.71608,-2.9651 -0.23966,-0.13212 -0.47932,-0.26425 -0.71898,-0.39637 0,0 6.20458,-4.04927 6.20458,-4.04927 l 0,0 c 0.22947,0.12477 0.45894,0.24954 0.68841,0.37431 1.92345,0.96155 3.81051,1.99623 5.69936,3.02337 2.41437,1.3421 4.84712,2.65059 7.26406,3.98807 2.92473,1.59812 5.7831,3.30695 8.65351,4.99988 2.92023,1.70356 5.86598,3.36882 8.65381,5.2871 2.5615,1.74936 5.05582,3.58763 7.43866,5.57608 2.53152,2.10846 4.99983,4.2937 7.59592,6.32359 2.47304,1.96521 4.86109,4.03457 7.12897,6.23488 2.62604,2.57802 5.35777,5.04601 7.9281,7.68151 2.48113,2.57712 5.0368,5.08032 7.46794,7.70546 2.46534,2.47522 4.91862,4.96236 7.37342,7.44801 2.69837,2.72657 5.42857,5.41942 8.21071,8.06044 2.66802,2.58297 5.37093,5.12906 8.04328,7.70744 2.40624,2.23011 4.79776,4.47729 7.38788,6.49728 2.55569,2.01116 5.26604,3.80703 8.03197,5.51557 2.93205,1.85966 5.96621,3.55553 9.05441,5.1418 3.11366,1.56033 6.19554,3.19646 9.43082,4.49739 3.36277,1.39276 6.76581,2.6898 10.19017,3.9231 3.34316,1.13553 6.67358,2.31081 10.04733,3.35402 2.99732,0.82916 6.01414,1.61004 9.09059,2.08883 2.96901,0.4938 5.94584,0.9533 8.9575,1.09173 3.70573,0.18116 7.41134,0.27821 11.122,0.21588 3.33614,-0.006 6.67287,-0.004 10.00809,-0.0929 3.07016,-0.10771 6.13767,-0.28542 9.18669,-0.67709 3.07719,-0.35116 6.07722,-1.04702 9.05568,-1.89359 3.76458,-1.08659 7.48197,-2.32657 11.24107,-3.4322 5.54479,-1.6338 11.07258,-3.32335 16.58747,-5.05553 6.55393,-2.1145 13.13063,-4.16657 19.64008,-6.41261 6.53241,-2.37838 12.93263,-5.11904 18.99999,-8.53229 5.66897,-3.09282 11.22136,-6.39238 16.90818,-9.45351 2.61048,-1.44046 5.20725,-2.90602 7.82113,-4.34024 0.77708,-0.42639 3.08418,-1.74524 2.33781,-1.26713 -1.33409,0.85458 -2.72371,1.61975 -4.10358,2.39824 -0.6195,0.3495 1.21457,-0.74064 1.82186,-1.11096 3.34829,-2.11611 6.52884,-4.46583 9.69633,-6.84196 2.90237,-2.33321 5.74918,-4.75081 8.36003,-7.41043 2.17194,-2.18649 4.33355,-4.38565 6.21885,-6.83056 2.33171,-2.97356 4.40075,-6.1083 6.07224,-9.50906 2.45446,-4.5884 4.83368,-9.21678 7.37487,-13.75851 1.76056,-3.72099 3.34083,-7.52547 4.891,-11.33834 1.43141,-3.68893 2.80119,-7.39792 4.15297,-11.11659 1.36555,-3.36137 2.79306,-6.69375 4.36351,-9.96586 1.25993,-2.82948 2.66603,-5.59332 3.78692,-8.48335 0.85036,-2.28117 1.78452,-4.52282 2.84618,-6.71451 1.12001,-2.36488 2.46494,-4.61589 3.70179,-6.9204 0,0 6.78439,-3.00694 6.78439,-3.00694 z"
       inkscape:connector-curvature="0" />
    <path
       style="fill:#008000;stroke:#000000;stroke-width:2;stroke-miterlimit:4;stroke-dasharray:none"
       id="path5883"
       d="m 701.03334,605.45682 c -1.59619,2.47368 -3.16657,4.96405 -4.76125,7.43884 -1.68825,2.7217 -3.47308,5.38077 -5.19103,8.08335 -1.88606,3.07576 -3.85366,6.09795 -5.94638,9.03718 -2.30707,3.19239 -4.60031,6.39835 -6.78448,9.6765 -2.94448,4.39262 -5.95137,8.7419 -8.86648,13.15433 -3.1021,4.70899 -6.50415,9.2185 -10.05379,13.59792 -2.36801,3.0369 -5.12427,5.72212 -7.98516,8.28621 -2.87552,2.57885 -5.90065,4.98242 -8.99374,7.29312 -3.51168,2.66397 -7.17097,5.10352 -10.91967,7.41711 -0.78508,0.48449 -1.5739,0.96298 -2.35524,1.45348 -2.60653,1.63627 -5.14652,3.37419 -7.78336,4.9625 -3.82195,2.30216 -7.74443,4.43319 -11.62563,6.63399 -5.5673,2.81043 -11.26386,5.37241 -17.03487,7.73481 -5.36626,2.23478 -10.79524,4.31364 -16.24863,6.32624 -4.67519,1.73948 -9.4226,3.26235 -14.21745,4.63167 -3.37773,0.87376 -6.84671,1.34175 -10.30536,1.76388 -3.49592,0.36638 -6.98584,0.74465 -10.49743,0.92119 -3.4663,0.14269 -6.93649,0.13877 -10.40508,0.14652 -3.78717,0.0826 -7.56673,-0.0913 -11.3488,-0.25289 -3.93693,-0.19965 -7.85132,-0.57832 -11.76224,-1.05702 -3.62846,-0.52161 -7.24209,-1.15469 -10.82756,-1.91884 -3.77138,-0.84143 -7.52667,-1.73258 -11.18184,-2.99211 -4.10724,-1.25317 -7.89977,-3.20674 -11.59188,-5.36228 -5.5788,-3.61291 -11.06873,-7.35495 -16.6601,-10.95092 -6.85618,-4.32089 -13.51462,-8.94011 -20.55116,-12.9671 -5.14046,-2.98275 -10.62585,-5.27302 -16.01482,-7.74968 -4.28398,-2.04867 -8.61132,-4.00099 -12.74941,-6.33551 -3.10895,-1.72709 -6.09455,-3.65773 -9.05432,-5.62555 -2.62444,-1.74815 -5.36224,-3.3204 -8.04753,-4.97306 -2.39046,-1.45807 -4.79534,-2.87707 -7.27837,-4.17254 -1.7827,-0.93911 -3.5637,-1.90367 -5.26689,-2.98302 -1.28531,-0.63007 -2.48632,-1.40922 -3.68716,-2.18367 -1.11328,-0.78359 -2.27267,-1.49787 -3.38382,-2.2853 -1.23695,-0.75166 -2.48126,-1.4905 -3.63543,-2.36666 -1.14148,-0.81996 -2.29531,-1.62008 -3.39348,-2.4981 -0.97243,-0.83679 -1.95017,-1.66383 -2.95277,-2.46408 -0.81443,-0.52782 -1.5588,-1.15775 -2.37229,-1.68748 -0.76587,-0.64694 -1.62396,-1.16615 -2.478,-1.68624 -0.16698,-0.12408 -0.33395,-0.24817 -0.50093,-0.37225 0,0 6.27267,-3.98638 6.27267,-3.98638 l 0,0 c 0.15692,0.10809 0.31385,0.21618 0.47077,0.32427 0.86651,0.52464 1.71588,1.07402 2.50536,1.71125 0.81108,0.56605 1.60143,1.1608 2.40195,1.74151 0.99461,0.80336 1.94654,1.65694 2.93251,2.47075 1.10098,0.86274 2.25966,1.64444 3.38063,2.48054 1.16509,0.85098 2.41782,1.56221 3.62724,2.34588 1.11263,0.76928 2.2589,1.48855 3.3722,2.257 1.20201,0.76647 2.40686,1.52485 3.67091,2.18681 1.68781,1.05573 3.42125,2.04715 5.1858,2.96768 2.48275,1.31938 4.88866,2.76165 7.28984,4.22309 2.69186,1.65096 5.41193,3.26061 8.04365,5.00608 2.94476,1.95146 5.90316,3.88635 8.99353,5.60283 4.10822,2.32813 8.39175,4.31019 12.66195,6.32077 5.38722,2.48231 10.82966,4.86833 15.95981,7.86564 6.99406,4.09326 13.62112,8.75468 20.50004,13.03484 5.64686,3.54332 11.17907,7.25628 16.81596,10.81228 3.69382,2.08614 7.47984,3.9821 11.55626,5.21633 3.64978,1.21318 7.39081,2.08973 11.14645,2.91133 3.57269,0.74263 7.17187,1.36969 10.78609,1.87162 3.89355,0.47635 7.79617,0.82738 11.71532,1.01913 3.7841,0.15582 7.56698,0.28029 11.35518,0.20848 3.46386,-0.008 6.92941,-0.0171 10.39012,-0.18243 3.49592,-0.20297 6.97647,-0.56585 10.4561,-0.95584 3.432,-0.44998 6.87544,-0.92599 10.22089,-1.83785 4.76443,-1.34685 9.46989,-2.88941 14.11004,-4.61883 5.44034,-2.01224 10.8535,-4.09953 16.20868,-6.32908 5.74782,-2.39202 11.44629,-4.92574 16.97674,-7.78866 -1.11024,0.66544 -2.28075,1.23936 -3.33074,1.99632 -0.85393,0.61562 1.83494,-1.03273 2.73997,-1.57042 2.63453,-1.56519 5.15042,-3.30672 7.73831,-4.9452 0.77168,-0.48857 1.55232,-0.96286 2.32848,-1.44428 3.73221,-2.29907 7.40202,-4.68203 10.89359,-7.33907 3.09182,-2.2913 6.12543,-4.66436 8.99842,-7.22771 2.88738,-2.53343 5.67699,-5.1898 8.07631,-8.20079 3.61824,-4.33237 7.03413,-8.84566 10.14757,-13.55503 2.88567,-4.39869 5.86365,-8.73405 8.77528,-13.11529 2.15576,-3.29729 4.45728,-6.49892 6.75756,-9.69613 2.10756,-2.90823 4.07141,-5.91376 5.93305,-8.98482 1.7095,-2.71024 3.50509,-5.36333 5.19046,-8.08925 1.57557,-2.44754 3.13636,-4.90443 4.67449,-7.37497 0,0 6.78439,-3.00694 6.78439,-3.00694 z"
       inkscape:connector-curvature="0" />
    <path
       style="fill:#008000;stroke:#000000;stroke-width:2;stroke-miterlimit:4;stroke-dasharray:none"
       id="path5885"
       d="m 733.71225,548.45097 c -0.47947,2.68012 -0.45399,5.42062 -0.46936,8.13438 -0.0104,2.77493 0.0138,5.54977 0.0269,8.32465 0.009,2.47775 0.01,4.95549 0.006,7.43325 -0.008,2.84057 -0.008,5.68111 -0.005,8.52168 -1.6e-4,3.13415 -0.0105,6.2683 -0.018,9.40244 -0.0764,3.82876 0.0487,7.65219 0.2072,11.47675 0.25078,4.53897 -0.0366,9.07629 -0.4031,13.59912 -0.45244,4.63731 -0.96969,9.26979 -1.64403,13.88036 -0.43519,3.80292 -1.2365,7.53961 -2.13366,11.2553 -0.93786,3.84921 -1.9224,7.68428 -3.03954,11.48536 -1.02541,3.80282 -2.39115,7.49712 -3.6224,11.23461 -1.43483,4.20595 -2.88599,8.40688 -4.28724,12.62423 -1.16349,3.48626 -2.40929,6.9428 -3.94787,10.28201 -1.26618,2.62391 -2.8949,5.04431 -4.54286,7.43833 -1.68508,2.59934 -3.83059,4.83211 -5.98982,7.03389 -1.95329,1.90795 -4.06283,3.66841 -6.29912,5.23579 -4.75377,3.28034 -8.22147,5.22202 -13.52207,5.96837 -2.89385,0.2551 -5.81098,-0.0152 -8.70954,-0.11771 -3.27275,-0.022 -6.5356,-0.20616 -9.802,-0.38892 -3.76142,-0.11634 -7.51743,-0.31876 -11.27595,-0.50289 -5.32067,-0.2882 -10.63626,-0.80763 -15.93227,-1.4004 -4.57434,-0.55905 -9.17696,-0.86406 -13.74886,-1.44179 -2.38877,-0.30186 -4.76933,-0.66552 -7.1545,-0.99464 -4.5985,-0.53168 -9.1233,-1.51271 -13.67271,-2.33785 -4.52154,-0.77506 -2.28194,-0.37666 -6.71904,-1.19381 -6.14807,-1.08724 -12.21704,-2.56484 -18.28041,-4.0417 -4.45137,-0.92424 -8.83052,-2.15058 -13.22642,-3.30087 -3.97019,-0.97498 -7.91799,-2.0186 -11.83029,-3.20391 -2.56817,-0.84605 -5.20916,-1.45535 -7.78884,-2.26075 -1.15013,-0.35908 -2.95667,-1.026 -4.07247,-1.42878 -4.74074,-1.72829 -9.44451,-3.55242 -14.17392,-5.31099 -4.0979,-1.60566 -8.18654,-3.23835 -12.09006,-5.27853 -2.61277,-1.44828 -5.00799,-3.2502 -7.41628,-5.00859 -2.39503,-1.75565 -4.68784,-3.63654 -6.90013,-5.61586 -2.24877,-2.04457 -4.5884,-3.97328 -7.01053,-5.80681 -2.69627,-2.13807 -5.51017,-4.12005 -8.2645,-6.18108 -2.60854,-1.94688 -5.17168,-3.95444 -7.71302,-5.98808 -2.55901,-2.03653 -5.17565,-3.99854 -7.77431,-5.98366 -2.37971,-1.86475 -4.82733,-3.64089 -7.22042,-5.48921 -2.1417,-1.5866 -4.34006,-3.09712 -6.53761,-4.60554 -2.29357,-1.63612 -4.61062,-3.23845 -6.87672,-4.91276 -2.12012,-1.55535 -4.25189,-3.09761 -6.32369,-4.71718 -2.05381,-1.61262 -4.16671,-3.16317 -6.12284,-4.89476 -1.79147,-1.60751 -3.60756,-3.1861 -5.41084,-4.78034 -1.99425,-1.5844 -3.83779,-3.33765 -5.69807,-5.0734 -1.70709,-1.67849 -3.52966,-3.23352 -5.24741,-4.89993 -1.74186,-1.67895 -3.60364,-3.22474 -5.41613,-4.8257 -1.79895,-1.71646 -3.68883,-3.32695 -5.60454,-4.91007 -1.65268,-1.43734 -3.27296,-2.91478 -4.88582,-4.39779 -1.1034,-0.97562 -2.08744,-2.0809 -3.21003,-3.0336 -0.96431,-0.82628 -1.91276,-1.67363 -2.85014,-2.53193 -0.86258,-0.68711 -1.67628,-1.42812 -2.52883,-2.12723 -0.38003,-0.22409 -0.7066,-0.51489 -1.07105,-0.76208 0,0 6.28647,-4.00061 6.28647,-4.00061 l 0,0 c 0.36616,0.26921 0.72572,0.54694 1.09582,0.81079 0.85608,0.70759 1.66401,1.47078 2.52576,2.17197 0.94043,0.84837 1.89496,1.68167 2.8461,2.51723 1.09956,0.98683 2.11102,2.06757 3.20203,3.06432 1.58766,1.48397 3.16669,2.98202 4.82618,4.38508 1.92349,1.58699 3.80534,3.21952 5.62044,4.93032 1.8169,1.61459 3.6962,3.15882 5.45048,4.84299 1.71575,1.65933 3.49978,3.24601 5.2211,4.89978 1.8562,1.73039 3.6998,3.47193 5.68535,5.05634 1.81098,1.5869 3.6267,3.16748 5.41885,4.77571 1.952,1.71081 4.02957,3.27719 6.0817,4.86485 2.08506,1.59319 4.19614,3.15249 6.31136,4.70529 2.2631,1.66526 4.5693,3.2692 6.86381,4.8906 2.21121,1.51071 4.42374,3.02486 6.55828,4.64247 2.38813,1.84712 4.82007,3.63644 7.19454,5.50056 2.6036,1.98828 5.22457,3.95425 7.78819,5.99437 2.53521,2.02774 5.09206,4.02947 7.69134,5.97458 2.75354,2.06837 5.56251,4.06293 8.28347,6.17431 2.43178,1.85159 4.77632,3.80558 7.04662,5.85308 2.19899,1.96036 4.48068,3.81894 6.86303,5.55365 2.38157,1.73594 4.75216,3.51024 7.34191,4.9296 3.8477,2.04104 7.87536,3.70608 11.93884,5.26661 4.7369,1.75743 9.45307,3.56935 14.20937,5.2744 3.91003,1.36442 7.89029,2.47715 11.86188,3.64686 3.90683,1.1726 7.85183,2.19785 11.80911,3.18632 4.37594,1.14984 8.73378,2.37459 13.15708,3.33567 6.0315,1.50409 12.07706,2.96627 18.20219,4.04476 6.76923,1.25579 13.53382,2.56746 20.35384,3.51944 6.95715,0.97331 13.93162,1.7381 20.92604,2.3938 5.32468,0.55425 10.66404,1.04856 16.01251,1.29096 3.77063,0.18325 7.54083,0.34616 11.31335,0.4821 3.26464,0.18034 6.52827,0.32864 9.79821,0.37334 2.88136,0.10116 5.79018,0.35686 8.65964,-0.0198 1.25299,-0.21827 2.47693,-0.46572 3.683,-0.88179 0.43174,-0.14894 1.65878,-0.74561 1.2785,-0.49268 -1.03348,0.68739 -7.72044,4.55841 -4.1883,2.51095 2.30057,-1.47083 4.39657,-3.26728 6.39901,-5.11632 2.15577,-2.1689 4.34184,-4.33843 6.02247,-6.91186 1.66294,-2.35943 3.28929,-4.7577 4.60514,-7.33229 1.60473,-3.30645 2.87917,-6.7527 4.05361,-10.23324 1.39388,-4.21194 2.86502,-8.39804 4.26341,-12.60851 1.20332,-3.74479 2.62486,-7.41838 3.64325,-11.22191 1.11844,-3.78622 2.10958,-7.60405 3.033,-11.44274 0.89904,-3.70302 1.75693,-7.42036 2.19385,-11.21225 0.70103,-4.60303 1.22543,-9.23126 1.71665,-13.8609 0.35076,-4.48621 0.60081,-8.98658 0.37693,-13.48727 -0.16354,-3.82974 -0.31751,-7.65691 -0.24563,-11.4915 -0.007,-3.12806 -0.0178,-6.25613 -0.0178,-9.3842 0.003,-2.83873 0.003,-5.67744 -0.005,-8.51617 -0.006,-2.47651 -0.007,-4.95301 -0.009,-7.42952 -10e-4,-2.78017 -0.004,-5.56033 -0.008,-8.34049 0.0127,-2.73558 -0.014,-5.48478 0.34172,-8.20257 0,0 6.66373,-3.25787 6.66373,-3.25787 z"
       inkscape:connector-curvature="0" />
    <text
       xml:space="preserve"
       style="font-style:normal;font-weight:normal;font-size:40px;line-height:125%;font-family:sans-serif;letter-spacing:0px;word-spacing:0px;fill:#000000;fill-opacity:1;stroke:none;stroke-width:1px;stroke-linecap:butt;stroke-linejoin:miter;stroke-opacity:1"
       x="822.69092"
       y="458.13419"
       id="text5728-6-7"
       sodipodi:linespacing="125%"><tspan
         sodipodi:role="line"
         x="822.69092"
         y="458.13419"
         style="font-size:25px"
         id="tspan5757-9">New Data</tspan><tspan
         sodipodi:role="line"
         x="822.69092"
         y="489.38419"
         style="font-size:25px"
         id="tspan5929">Structure</tspan><tspan
         sodipodi:role="line"
         x="822.69092"
         y="520.63416"
         style="font-size:25px"
         id="tspan5931">using Shared</tspan><tspan
         sodipodi:role="line"
         x="822.69092"
         y="551.88416"
         style="font-size:25px"
         id="tspan5933">Memory</tspan></text>
  </g>
</svg>
