<?xml version="1.0" encoding="UTF-8" standalone="no"?>
<!-- Created with Inkscape (http://www.inkscape.org/) -->

<svg
   xmlns:dc="http://purl.org/dc/elements/1.1/"
   xmlns:cc="http://creativecommons.org/ns#"
   xmlns:rdf="http://www.w3.org/1999/02/22-rdf-syntax-ns#"
   xmlns:svg="http://www.w3.org/2000/svg"
   xmlns="http://www.w3.org/2000/svg"
   xmlns:sodipodi="http://sodipodi.sourceforge.net/DTD/sodipodi-0.dtd"
   xmlns:inkscape="http://www.inkscape.org/namespaces/inkscape"
   width="1052.3622"
   height="744.09448"
   id="svg2"
   version="1.1"
   inkscape:version="0.48.4 r9939"
   sodipodi:docname="salesforce-ev-git-collaboration.svg"
   inkscape:export-filename="/home/jr0cket/projects/dev-docs/developer-guides/salesforce-ev-git-collaboration.png"
   inkscape:export-xdpi="90"
   inkscape:export-ydpi="90">
  <defs
     id="defs4" />
  <sodipodi:namedview
     id="base"
     pagecolor="#ffffff"
     bordercolor="#666666"
     borderopacity="1.0"
     inkscape:pageopacity="1"
     inkscape:pageshadow="2"
     inkscape:zoom="0.98994949"
     inkscape:cx="507.56826"
     inkscape:cy="334.54102"
     inkscape:document-units="px"
     inkscape:current-layer="layer2"
     showgrid="false"
     inkscape:window-width="1600"
     inkscape:window-height="876"
     inkscape:window-x="0"
     inkscape:window-y="24"
     inkscape:window-maximized="1" />
  <metadata
     id="metadata7">
    <rdf:RDF>
      <cc:Work
         rdf:about="">
        <dc:format>image/svg+xml</dc:format>
        <dc:type
           rdf:resource="http://purl.org/dc/dcmitype/StillImage" />
        <dc:title></dc:title>
      </cc:Work>
    </rdf:RDF>
  </metadata>
  <g
     inkscape:label="Background"
     inkscape:groupmode="layer"
     id="layer1"
     transform="translate(0,-308.2677)"
     style="opacity:0.23999999;display:inline" />
  <g
     inkscape:groupmode="layer"
     id="layer2"
     inkscape:label="Content"
     style="display:inline">
    <path
       style="fill:#ffffff;fill-opacity:1;stroke:#000000;stroke-width:1.78099346;stroke-miterlimit:4;stroke-dasharray:none"
       d="m 76.80557,65.409633 c -4.65291,0 -8.42861,3.69402 -8.42861,8.25355 0,3.9896 2.88105,7.31576 6.72011,8.08558 -0.35947,0.80635 -0.58373,1.90966 -0.58373,3.12448 l 0,2.69892 -8.17233,0 c -1.47945,0 -2.82709,0.15325 -3.88685,0.41436 -0.2429,-0.0429 -0.58778,0.0762 -0.98239,0.30237 -0.69299,0.27066 -1.13932,0.60199 -1.2529,0.9631 -0.36567,0.3431 -0.74363,0.73854 -1.11052,1.18708 l -7.9303,9.686997 c -1.44932,1.77184 -2.1804,3.57507 -1.65155,4.04279 0.52884,0.46771 2.1243,-0.57993 3.57361,-2.35176 l 7.91606,-9.687007 c 0.38212,-0.46716 0.70903,-0.93101 0.98239,-1.37746 1.1125,0.33476 2.64218,0.53755 4.34245,0.53755 l 8.17233,0 0,19.721167 c 0,1.13222 0.19547,2.15744 0.51254,2.9453 -1.19494,0.61011 -2.72537,2.24163 -3.94378,4.34515 l -9.2971,16.07035 c -1.70305,2.94017 -2.14249,5.64284 -0.98239,6.05857 1.16009,0.41575 3.46518,-1.61776 5.16822,-4.55792 l 9.29709,-16.07035 c 0.58894,-1.01677 1.02316,-2.00306 1.29561,-2.87811 0.33092,0.96041 0.91202,2.07411 1.69428,3.22527 l 10.57847,15.5776 c 1.9363,2.84945 4.39986,4.76185 5.52416,4.28916 1.1243,-0.47269 0.46984,-3.14193 -1.46646,-5.99139 L 82.31549,118.44739 c -1.39484,-2.05264 -3.06953,-3.61564 -4.31396,-4.15477 0.4063,-0.81824 0.65492,-1.97907 0.65492,-3.28127 l 0,-19.721167 6.33569,0 c 2.00429,0 3.77414,-0.28211 4.89771,-0.72793 0.27425,0.49466 0.64208,1.04632 1.12477,1.62384 l 8.0442,9.619807 c 1.47142,1.76052 3.27124,3.02389 4.02922,2.83331 0.75799,-0.19059 0.1758,-1.76712 -1.29561,-3.52764 l -8.0442,-9.619807 c -0.89191,-1.06716 -1.89276,-1.95249 -2.71937,-2.44136 -0.57254,-0.85082 -3.05057,-1.47824 -6.03672,-1.47824 l -6.33569,0 0,-2.69892 c 0,-1.17612 -0.20165,-2.24754 -0.54102,-3.04609 4.03064,-0.61677 7.10452,-4.04116 7.10452,-8.16397 0,-4.55953 -3.76146,-8.25355 -8.41438,-8.25355 z"
       id="path3761"
       inkscape:connector-curvature="0"
       inkscape:export-filename="/home/jr0cket/Dropbox/DevGuides/git-local-workflow.png"
       inkscape:export-xdpi="90"
       inkscape:export-ydpi="90" />
    <path
       style="fill:#c83737;fill-opacity:1;stroke:#000000;stroke-width:2.67544055;stroke-miterlimit:4;stroke-dasharray:none"
       d="m 164.92221,80.07484 c -16.9784,0 -30.74667,3.92782 -30.74667,8.77878 0,0.16618 0.0309,0.31685 0.0627,0.48074 -0.38199,1.00357 -0.62705,2.31135 -0.62705,3.76234 l 0,23.91175 c 0,3.15496 1.08713,5.70621 2.44552,5.70621 0.15493,0 0.31302,-0.0413 0.45984,-0.10445 4.62256,3.18062 15.60078,5.41359 28.40564,5.41359 13.68109,0 25.25457,-2.55264 29.24174,-6.08246 0.14115,0.0583 0.29037,0.0836 0.43894,0.0836 1.35837,0 2.44552,-2.53036 2.44552,-5.68531 l 0,-23.91175 c 0,-3.03936 -1.01036,-5.50851 -2.2992,-5.68531 -3.31319,-3.82935 -15.4006,-6.6677 -29.827,-6.6677 z m 27.23515,12.85465 0,22.2396 c -5.14005,-2.79892 -15.40481,-4.70293 -27.23515,-4.70293 -11.23251,0 -21.05608,1.71526 -26.41998,4.28489 l 0,-21.40352 c 5.3639,2.56963 15.18747,4.28488 26.41998,4.28488 11.83034,0 22.0951,-1.904 27.23515,-4.70292 z"
       id="path5296"
       inkscape:connector-curvature="0"
       inkscape:export-filename="/home/jr0cket/Dropbox/DevGuides/git-local-workflow.png"
       inkscape:export-xdpi="90"
       inkscape:export-ydpi="90" />
    <text
       xml:space="preserve"
       style="font-size:18px;font-style:normal;font-weight:normal;line-height:125%;letter-spacing:0px;word-spacing:0px;fill:#000000;fill-opacity:1;stroke:none;font-family:Sans"
       x="114.20816"
       y="152.79993"
       id="text5344"
       sodipodi:linespacing="125%"
       inkscape:export-filename="/home/jr0cket/Dropbox/DevGuides/git-local-workflow.png"
       inkscape:export-xdpi="90"
       inkscape:export-ydpi="90"><tspan
         sodipodi:role="line"
         id="tspan5346"
         x="114.20816"
         y="152.79993"
         style="font-weight:bold;-inkscape-font-specification:Sans Bold">Local repo</tspan></text>
    <path
       style="fill:#c83737;fill-opacity:1;stroke:#000000;stroke-width:4.33038759;stroke-miterlimit:4;stroke-dasharray:none;display:inline"
       d="m 632.94725,83.38782 c -27.48074,0 -49.76564,6.35745 -49.76564,14.20907 0,0.26898 0.05,0.51285 0.10148,0.77811 -0.61826,1.62435 -1.01492,3.74109 -1.01492,6.08961 l 0,38.70284 c 0,5.10653 1.75961,9.2359 3.95824,9.2359 0.25078,0 0.50665,-0.0669 0.74429,-0.16906 7.48194,5.14806 25.25096,8.76228 45.97652,8.76228 22.1438,0 40.87627,-4.13163 47.32978,-9.84489 0.22847,0.0944 0.46999,0.13531 0.71046,0.13531 2.19862,0 3.95824,-4.09556 3.95824,-9.20207 l 0,-38.70284 c 0,-4.91941 -1.63533,-8.91591 -3.72141,-9.20207 -5.36263,-6.19807 -24.92693,-10.79214 -48.27707,-10.79214 z m 44.08198,20.80615 0,35.99635 c -8.31953,-4.53025 -24.93374,-7.61202 -44.08198,-7.61202 -18.1806,0 -34.08073,2.77627 -42.76258,6.93539 l 0,-34.64309 c 8.68185,4.15913 24.58198,6.93538 42.76258,6.93538 19.14824,0 35.76245,-3.08176 44.08198,-7.61201 z"
       id="path5296-7-9-3"
       inkscape:connector-curvature="0" />
    <text
       xml:space="preserve"
       style="font-size:18px;font-style:normal;font-weight:normal;text-align:center;line-height:125%;letter-spacing:0px;word-spacing:0px;text-anchor:middle;fill:#000000;fill-opacity:1;stroke:none;display:inline;font-family:Sans"
       x="635.70099"
       y="186.60019"
       id="text5344-98-2-7"
       sodipodi:linespacing="125%"><tspan
         sodipodi:role="line"
         x="635.70099"
         y="186.60019"
         style="font-weight:bold;text-align:center;text-anchor:middle;-inkscape-font-specification:Sans Bold"
         id="tspan7057">Shared Github repo</tspan></text>
    <text
       xml:space="preserve"
       style="font-size:18px;font-style:normal;font-weight:normal;line-height:125%;letter-spacing:0px;word-spacing:0px;fill:#000000;fill-opacity:1;stroke:none;font-family:Sans"
       x="50.529507"
       y="160.62358"
       id="text5658-2"
       sodipodi:linespacing="125%"
       inkscape:export-filename="/home/jr0cket/Dropbox/DevGuides/git-local-workflow.png"
       inkscape:export-xdpi="90"
       inkscape:export-ydpi="90"><tspan
         sodipodi:role="line"
         id="tspan5660-1"
         x="50.529507"
         y="160.62358"
         style="font-weight:bold;-inkscape-font-specification:Sans Bold">EV's</tspan></text>
    <text
       xml:space="preserve"
       style="font-size:18px;font-style:normal;font-weight:normal;text-align:center;line-height:125%;letter-spacing:0px;word-spacing:0px;text-anchor:middle;fill:#000000;fill-opacity:1;stroke:none;display:inline;font-family:Sans"
       x="183.86627"
       y="189.49925"
       id="text5678-5-4-5-1-8"
       sodipodi:linespacing="125%"><tspan
         sodipodi:role="line"
         id="tspan5680-3-2-5-3-2"
         x="183.86627"
         y="189.49925"
         style="font-style:italic;text-align:center;text-anchor:middle;-inkscape-font-specification:Sans Italic">Branches are optinal</tspan><tspan
         sodipodi:role="line"
         x="183.86627"
         y="206.01875"
         style="font-size:12px;font-style:italic;text-align:center;text-anchor:middle;-inkscape-font-specification:Sans Italic"
         id="tspan3331">(branches are merged before pushed, usually)</tspan></text>
    <text
       xml:space="preserve"
       style="font-size:24px;font-style:normal;font-weight:bold;text-align:center;line-height:125%;letter-spacing:0px;word-spacing:0px;text-anchor:middle;fill:#000000;fill-opacity:1;stroke:none;font-family:Sans;-inkscape-font-specification:Sans Bold"
       x="646.82422"
       y="44.000977"
       id="text5836-0"
       sodipodi:linespacing="125%"><tspan
         sodipodi:role="line"
         id="tspan5838-9"
         x="646.82422"
         y="44.000977">Github Org or</tspan><tspan
         sodipodi:role="line"
         x="646.82422"
         y="74.000977"
         id="tspan3128">personal account</tspan></text>
    <text
       xml:space="preserve"
       style="font-size:18px;font-style:normal;font-weight:normal;line-height:125%;letter-spacing:0px;word-spacing:0px;fill:#000000;fill-opacity:1;stroke:none;display:inline;font-family:Sans"
       x="309.76831"
       y="114.59793"
       id="text5678-5-4-5-1-0-4"
       sodipodi:linespacing="125%"><tspan
         sodipodi:role="line"
         id="tspan5680-3-2-5-3-9-7"
         x="309.76831"
         y="114.59793">git push <tspan
   style="font-style:italic"
   id="tspan7877">github</tspan><tspan
   style="font-style:italic;fill:#000000;fill-opacity:1"
   id="tspan6174-3-0-7-9"> master</tspan></tspan></text>
    <rect
       style="fill:#ffffff;fill-opacity:1;stroke:#000000;stroke-width:4.84773874;stroke-miterlimit:4;stroke-dasharray:none;display:inline"
       id="rect6144-3-7-3-1"
       width="1.498534"
       height="180.02727"
       x="-132.04062"
       y="-494.96616"
       rx="14.135428"
       ry="26.055529"
       transform="matrix(-0.02310337,-0.99973308,-0.99999998,2.1099101e-4,0,0)" />
    <g
       id="g5650-08-5-3-0-75-5"
       transform="matrix(-0.42182716,-0.00210227,0.00546558,0.45450458,598.63557,-229.58301)"
       style="stroke-width:9.80934143;stroke-miterlimit:4;stroke-dasharray:none;display:inline">
      <g
         id="g5654-7-4-7-2-7-9"
         transform="matrix(0.40019564,0.04095051,-0.04095051,0.40019564,183.38257,365.5704)"
         style="stroke-width:24.38403893;stroke-miterlimit:4;stroke-dasharray:none">
        <rect
           style="fill:#000000;fill-opacity:1;stroke:#000000;stroke-width:24.38403893;stroke-miterlimit:4;stroke-dasharray:none"
           id="rect5609-74-4-7-9-8-6"
           width="120.52968"
           height="2.511035"
           x="458.97156"
           y="969.97491"
           rx="21.40765"
           ry="2.511035"
           transform="matrix(0.97437172,0.22494389,-0.22494389,0.97437172,0,0)" />
        <rect
           style="fill:#000000;fill-opacity:1;stroke:#000000;stroke-width:24.38403893;stroke-miterlimit:4;stroke-dasharray:none"
           id="rect5609-7-29-1-9-7-9-3"
           width="120.52968"
           height="2.511035"
           x="-275.39764"
           y="1037.444"
           rx="21.40765"
           ry="2.511035"
           transform="matrix(0.88918786,-0.4575423,0.4575423,0.88918786,0,0)" />
      </g>
    </g>
    <path
       style="opacity:0.5;fill:#c83737;fill-opacity:1;stroke:#000000;stroke-width:1.11929893;stroke-miterlimit:4;stroke-dasharray:none;display:inline"
       d="m 259.09863,88.292758 c -7.10309,0 -12.86319,1.64325 -12.86319,3.672702 0,0.0695 0.0129,0.13255 0.0262,0.20112 -0.15981,0.41985 -0.26233,0.96698 -0.26233,1.57401 l 0,10.00374 c 0,1.31991 0.45481,2.38725 1.02311,2.38725 0.0648,0 0.13096,-0.0173 0.19238,-0.0437 1.9339,1.33064 6.52675,2.26483 11.8838,2.26483 5.72363,0 10.56551,-1.06793 12.23359,-2.54466 0.059,0.0244 0.12148,0.035 0.18363,0.035 0.56829,0 1.02311,-1.0586 1.02311,-2.37851 l 0,-10.00373 c 0,-1.27155 -0.42269,-2.30455 -0.96189,-2.37851 -1.38611,-1.602052 -6.443,-2.789512 -12.47844,-2.789512 z m 11.39412,5.377882 0,9.30417 c -2.1504,-1.17095 -6.44476,-1.96752 -11.39412,-1.96752 -4.69924,0 -8.80903,0.7176 -11.05307,1.79263 l 0,-8.95439 c 2.24404,1.07503 6.35383,1.79263 11.05307,1.79263 4.94936,0 9.24372,-0.79656 11.39412,-1.96752 z"
       id="path5296-3-6-1"
       inkscape:connector-curvature="0" />
    <text
       xml:space="preserve"
       style="font-size:12px;font-style:normal;font-weight:normal;line-height:125%;letter-spacing:0px;word-spacing:0px;fill:#000000;fill-opacity:1;stroke:none;display:inline;font-family:Sans"
       x="235.81152"
       y="123.72617"
       id="text5344-9-9-2"
       sodipodi:linespacing="125%"><tspan
         sodipodi:role="line"
         id="tspan5346-1-8-9"
         x="235.81152"
         y="123.72617"
         style="font-size:12px;font-weight:bold;-inkscape-font-specification:Sans Bold">Branch</tspan></text>
    <text
       xml:space="preserve"
       style="font-size:20px;font-style:normal;font-weight:bold;line-height:125%;letter-spacing:0px;word-spacing:0px;fill:#000000;fill-opacity:1;stroke:none;font-family:Sans;-inkscape-font-specification:Sans Bold"
       x="57.578693"
       y="36.987698"
       id="text7879"
       sodipodi:linespacing="125%"><tspan
         sodipodi:role="line"
         id="tspan7881"
         x="57.578693"
         y="36.987698">Adhoc approach</tspan></text>
    <path
       style="fill:#ffffff;fill-opacity:1;stroke:#000000;stroke-width:1.78099346;stroke-miterlimit:4;stroke-dasharray:none;display:inline"
       d="m 109.80705,280.82251 c -4.65291,0 -8.42861,3.69402 -8.42861,8.25355 0,3.9896 2.88105,7.31576 6.72011,8.08558 -0.35947,0.80635 -0.58373,1.90966 -0.58373,3.12448 l 0,2.69892 -8.17233,0 c -1.47945,0 -2.82709,0.15325 -3.88685,0.41436 -0.2429,-0.0429 -0.58778,0.0762 -0.98239,0.30237 -0.69299,0.27066 -1.13932,0.60199 -1.2529,0.9631 -0.36567,0.3431 -0.74363,0.73854 -1.11052,1.18708 l -7.9303,9.687 c -1.44932,1.77184 -2.1804,3.57507 -1.65155,4.04279 0.52884,0.46771 2.1243,-0.57993 3.57361,-2.35176 l 7.91606,-9.68701 c 0.38212,-0.46716 0.70903,-0.93101 0.98239,-1.37746 1.1125,0.33476 2.64218,0.53755 4.34245,0.53755 l 8.17233,0 0,19.72117 c 0,1.13222 0.19547,2.15744 0.51254,2.9453 -1.19494,0.61011 -2.72537,2.24163 -3.94378,4.34515 l -9.2971,16.07035 c -1.70305,2.94017 -2.14249,5.64284 -0.98239,6.05857 1.16009,0.41575 3.46518,-1.61776 5.16822,-4.55792 l 9.29709,-16.07035 c 0.58894,-1.01677 1.02316,-2.00306 1.29561,-2.87811 0.33092,0.96041 0.91202,2.07411 1.69428,3.22527 l 10.57847,15.5776 c 1.9363,2.84945 4.39986,4.76185 5.52416,4.28916 1.1243,-0.47269 0.46984,-3.14193 -1.46646,-5.99139 l -10.57849,-15.57759 c -1.39484,-2.05264 -3.06953,-3.61564 -4.31396,-4.15477 0.4063,-0.81824 0.65492,-1.97907 0.65492,-3.28127 l 0,-19.72117 6.33569,0 c 2.00429,0 3.77414,-0.28211 4.89771,-0.72793 0.27425,0.49466 0.64208,1.04632 1.12477,1.62384 l 8.0442,9.61981 c 1.47142,1.76052 3.27124,3.02389 4.02922,2.83331 0.75799,-0.19059 0.1758,-1.76712 -1.29561,-3.52764 l -8.0442,-9.61981 c -0.89191,-1.06716 -1.89276,-1.95249 -2.71937,-2.44136 -0.57254,-0.85082 -3.05057,-1.47824 -6.03672,-1.47824 l -6.33569,0 0,-2.69892 c 0,-1.17612 -0.20165,-2.24754 -0.54102,-3.04609 4.03064,-0.61677 7.10452,-4.04116 7.10452,-8.16397 0,-4.55953 -3.76146,-8.25355 -8.41438,-8.25355 z"
       id="path3761-4"
       inkscape:connector-curvature="0"
       inkscape:export-filename="/home/jr0cket/Dropbox/DevGuides/git-local-workflow.png"
       inkscape:export-xdpi="90"
       inkscape:export-ydpi="90" />
    <path
       style="fill:#c83737;fill-opacity:1;stroke:#000000;stroke-width:2.67544055;stroke-miterlimit:4;stroke-dasharray:none;display:inline"
       d="m 197.92369,297.48772 c -16.9784,0 -30.74667,3.92782 -30.74667,8.77878 0,0.16618 0.0309,0.31685 0.0627,0.48074 -0.38199,1.00357 -0.62705,2.31135 -0.62705,3.76234 l 0,23.91175 c 0,3.15496 1.08713,5.70621 2.44552,5.70621 0.15493,0 0.31302,-0.0413 0.45984,-0.10445 4.62256,3.18062 15.60078,5.41359 28.40564,5.41359 13.68109,0 25.25457,-2.55264 29.24174,-6.08246 0.14115,0.0583 0.29037,0.0836 0.43894,0.0836 1.35837,0 2.44552,-2.53036 2.44552,-5.68531 l 0,-23.91175 c 0,-3.03936 -1.01036,-5.50851 -2.2992,-5.68531 -3.31319,-3.82935 -15.4006,-6.6677 -29.827,-6.6677 z m 27.23515,12.85465 0,22.2396 c -5.14005,-2.79892 -15.40481,-4.70293 -27.23515,-4.70293 -11.23251,0 -21.05608,1.71526 -26.41998,4.28489 l 0,-21.40352 c 5.3639,2.56963 15.18747,4.28488 26.41998,4.28488 11.83034,0 22.0951,-1.904 27.23515,-4.70292 z"
       id="path5296-9"
       inkscape:connector-curvature="0"
       inkscape:export-filename="/home/jr0cket/Dropbox/DevGuides/git-local-workflow.png"
       inkscape:export-xdpi="90"
       inkscape:export-ydpi="90" />
    <text
       xml:space="preserve"
       style="font-size:18px;font-style:normal;font-weight:normal;line-height:125%;letter-spacing:0px;word-spacing:0px;fill:#000000;fill-opacity:1;stroke:none;display:inline;font-family:Sans"
       x="147.20966"
       y="370.21283"
       id="text5344-2"
       sodipodi:linespacing="125%"
       inkscape:export-filename="/home/jr0cket/Dropbox/DevGuides/git-local-workflow.png"
       inkscape:export-xdpi="90"
       inkscape:export-ydpi="90"><tspan
         sodipodi:role="line"
         id="tspan5346-6"
         x="147.20966"
         y="370.21283"
         style="font-weight:bold;-inkscape-font-specification:Sans Bold">Local repo</tspan></text>
    <path
       style="fill:#c83737;fill-opacity:1;stroke:#000000;stroke-width:4.33038759;stroke-miterlimit:4;stroke-dasharray:none;display:inline"
       d="m 707.94873,278.8007 c -27.48074,0 -49.76564,6.35745 -49.76564,14.20907 0,0.26898 0.05,0.51285 0.10148,0.77811 -0.61826,1.62435 -1.01492,3.74109 -1.01492,6.08961 l 0,38.70284 c 0,5.10653 1.75961,9.2359 3.95824,9.2359 0.25078,0 0.50665,-0.0669 0.74429,-0.16906 7.48194,5.14806 25.25096,8.76228 45.97652,8.76228 22.1438,0 40.87627,-4.13163 47.32978,-9.84489 0.22847,0.0944 0.46999,0.13531 0.71046,0.13531 2.19862,0 3.95824,-4.09556 3.95824,-9.20207 l 0,-38.70284 c 0,-4.91941 -1.63533,-8.91591 -3.72141,-9.20207 -5.36263,-6.19807 -24.92693,-10.79214 -48.27707,-10.79214 z m 44.08198,20.80615 0,35.99635 c -8.31953,-4.53025 -24.93374,-7.61202 -44.08198,-7.61202 -18.1806,0 -34.08073,2.77627 -42.76258,6.93539 l 0,-34.64309 c 8.68185,4.15913 24.58198,6.93538 42.76258,6.93538 19.14824,0 35.76245,-3.08176 44.08198,-7.61201 z"
       id="path5296-7-9-3-3"
       inkscape:connector-curvature="0" />
    <text
       xml:space="preserve"
       style="font-size:18px;font-style:normal;font-weight:normal;text-align:center;line-height:125%;letter-spacing:0px;word-spacing:0px;text-anchor:middle;fill:#000000;fill-opacity:1;stroke:none;display:inline;font-family:Sans"
       x="710.70251"
       y="382.01306"
       id="text5344-98-2-7-5"
       sodipodi:linespacing="125%"><tspan
         sodipodi:role="line"
         id="tspan5346-19-3-7-3"
         x="710.70251"
         y="382.01306"
         style="font-weight:bold;text-align:center;text-anchor:middle;-inkscape-font-specification:Sans Bold">Shared</tspan><tspan
         sodipodi:role="line"
         x="710.70251"
         y="404.51306"
         style="font-weight:bold;text-align:center;text-anchor:middle;-inkscape-font-specification:Sans Bold"
         id="tspan7057-2">Github repo</tspan></text>
    <text
       xml:space="preserve"
       style="font-size:18px;font-style:normal;font-weight:normal;line-height:125%;letter-spacing:0px;word-spacing:0px;fill:#000000;fill-opacity:1;stroke:none;display:inline;font-family:Sans"
       x="83.530991"
       y="376.03644"
       id="text5658-2-5"
       sodipodi:linespacing="125%"
       inkscape:export-filename="/home/jr0cket/Dropbox/DevGuides/git-local-workflow.png"
       inkscape:export-xdpi="90"
       inkscape:export-ydpi="90"><tspan
         sodipodi:role="line"
         id="tspan5660-1-9"
         x="83.530991"
         y="376.03644"
         style="font-weight:bold;-inkscape-font-specification:Sans Bold">EV's</tspan></text>
    <text
       xml:space="preserve"
       style="font-size:18px;font-style:normal;font-weight:normal;text-align:center;line-height:125%;letter-spacing:0px;word-spacing:0px;text-anchor:middle;fill:#000000;fill-opacity:1;stroke:none;display:inline;font-family:Sans"
       x="230.86775"
       y="402.91211"
       id="text5678-5-4-5-1-8-7"
       sodipodi:linespacing="125%"><tspan
         sodipodi:role="line"
         id="tspan5680-3-2-5-3-2-9"
         x="230.86775"
         y="402.91211"
         style="font-style:italic;text-align:center;text-anchor:middle;-inkscape-font-specification:Sans Italic">Branches are created for different features</tspan><tspan
         sodipodi:role="line"
         x="230.86775"
         y="419.43161"
         style="font-size:12px;font-style:italic;text-align:center;text-anchor:middle;-inkscape-font-specification:Sans Italic"
         id="tspan3331-9">(branches are often shared in the Github repository)</tspan></text>
    <text
       xml:space="preserve"
       style="font-size:24px;font-style:normal;font-weight:bold;line-height:125%;letter-spacing:0px;word-spacing:0px;fill:#000000;fill-opacity:1;stroke:none;display:inline;font-family:Sans;-inkscape-font-specification:Sans Bold"
       x="637.78668"
       y="263.41388"
       id="text5836-0-2"
       sodipodi:linespacing="125%"><tspan
         sodipodi:role="line"
         x="637.78668"
         y="263.41388"
         id="tspan8048">Github Org</tspan></text>
    <text
       xml:space="preserve"
       style="font-size:18px;font-style:normal;font-weight:normal;line-height:125%;letter-spacing:0px;word-spacing:0px;fill:#000000;fill-opacity:1;stroke:none;display:inline;font-family:Sans"
       x="390.76978"
       y="322.0108"
       id="text5678-5-4-5-1-0-4-0"
       sodipodi:linespacing="125%"><tspan
         sodipodi:role="line"
         id="tspan5680-3-2-5-3-9-7-4"
         x="390.76978"
         y="322.0108">git push <tspan
   style="font-style:italic"
   id="tspan7877-6">github</tspan><tspan
   style="font-style:italic;fill:#000000;fill-opacity:1"
   id="tspan6174-3-0-7-9-3"> master</tspan></tspan></text>
    <rect
       style="fill:#ffffff;fill-opacity:1;stroke:#000000;stroke-width:4.84773874;stroke-miterlimit:4;stroke-dasharray:none;display:inline"
       id="rect6144-3-7-3-1-5"
       width="1.498534"
       height="180.02727"
       x="-339.5253"
       y="-571.17419"
       rx="14.135428"
       ry="26.055529"
       transform="matrix(-0.02310337,-0.99973308,-0.99999998,2.1099101e-4,0,0)" />
    <g
       id="g5650-08-5-3-0-75-5-6"
       transform="matrix(-0.42182716,-0.00210227,0.00546558,0.45450458,679.63705,-22.17013)"
       style="stroke-width:9.80934143;stroke-miterlimit:4;stroke-dasharray:none;display:inline">
      <g
         id="g5654-7-4-7-2-7-9-7"
         transform="matrix(0.40019564,0.04095051,-0.04095051,0.40019564,183.38257,365.5704)"
         style="stroke-width:24.38403893;stroke-miterlimit:4;stroke-dasharray:none">
        <rect
           style="fill:#000000;fill-opacity:1;stroke:#000000;stroke-width:24.38403893;stroke-miterlimit:4;stroke-dasharray:none"
           id="rect5609-74-4-7-9-8-6-1"
           width="120.52968"
           height="2.511035"
           x="458.97156"
           y="969.97491"
           rx="21.40765"
           ry="2.511035"
           transform="matrix(0.97437172,0.22494389,-0.22494389,0.97437172,0,0)" />
        <rect
           style="fill:#000000;fill-opacity:1;stroke:#000000;stroke-width:24.38403893;stroke-miterlimit:4;stroke-dasharray:none"
           id="rect5609-7-29-1-9-7-9-3-7"
           width="120.52968"
           height="2.511035"
           x="-275.39764"
           y="1037.444"
           rx="21.40765"
           ry="2.511035"
           transform="matrix(0.88918786,-0.4575423,0.4575423,0.88918786,0,0)" />
      </g>
    </g>
    <path
       style="opacity:0.5;fill:#c83737;fill-opacity:1;stroke:#000000;stroke-width:1.11929893;stroke-miterlimit:4;stroke-dasharray:none;display:inline"
       d="m 310.10011,299.70564 c -7.10309,0 -12.86319,1.64325 -12.86319,3.6727 0,0.0695 0.0129,0.13255 0.0262,0.20112 -0.15981,0.41985 -0.26233,0.96698 -0.26233,1.57401 l 0,10.00374 c 0,1.31991 0.45481,2.38725 1.02311,2.38725 0.0648,0 0.13096,-0.0173 0.19238,-0.0437 1.9339,1.33064 6.52675,2.26483 11.8838,2.26483 5.72363,0 10.56551,-1.06793 12.23359,-2.54466 0.059,0.0244 0.12148,0.035 0.18363,0.035 0.56829,0 1.02311,-1.0586 1.02311,-2.37851 l 0,-10.00373 c 0,-1.27155 -0.42269,-2.30455 -0.96189,-2.37851 -1.38611,-1.60205 -6.443,-2.78951 -12.47844,-2.78951 z m 11.39412,5.37788 0,9.30417 c -2.1504,-1.17095 -6.44476,-1.96752 -11.39412,-1.96752 -4.69924,0 -8.80903,0.7176 -11.05307,1.79263 l 0,-8.95439 c 2.24404,1.07503 6.35383,1.79263 11.05307,1.79263 4.94936,0 9.24372,-0.79656 11.39412,-1.96752 z"
       id="path5296-3-6-1-5"
       inkscape:connector-curvature="0" />
    <text
       xml:space="preserve"
       style="font-size:12px;font-style:normal;font-weight:normal;line-height:125%;letter-spacing:0px;word-spacing:0px;fill:#000000;fill-opacity:1;stroke:none;display:inline;font-family:Sans"
       x="286.81299"
       y="341.13904"
       id="text5344-9-9-2-5"
       sodipodi:linespacing="125%"><tspan
         sodipodi:role="line"
         id="tspan5346-1-8-9-1"
         x="286.81299"
         y="341.13904"
         style="font-size:12px;font-weight:bold;-inkscape-font-specification:Sans Bold">Branch</tspan></text>
    <text
       xml:space="preserve"
       style="font-size:20px;font-style:normal;font-weight:bold;line-height:125%;letter-spacing:0px;word-spacing:0px;fill:#000000;fill-opacity:1;stroke:none;display:inline;font-family:Sans;-inkscape-font-specification:Sans Bold"
       x="90.580177"
       y="266.40057"
       id="text7879-5"
       sodipodi:linespacing="125%"><tspan
         sodipodi:role="line"
         id="tspan7881-7"
         x="90.580177"
         y="266.40057">Branching approach</tspan></text>
    <path
       style="opacity:0.5;fill:#c83737;fill-opacity:1;stroke:#000000;stroke-width:1.11929893;stroke-miterlimit:4;stroke-dasharray:none;display:inline"
       d="m 823.08792,367.01421 c -7.10309,0 -12.86319,1.64325 -12.86319,3.6727 0,0.0695 0.0129,0.13255 0.0262,0.20112 -0.15981,0.41985 -0.26233,0.96698 -0.26233,1.57401 l 0,10.00374 c 0,1.31991 0.45481,2.38725 1.02311,2.38725 0.0648,0 0.13096,-0.0173 0.19238,-0.0437 1.9339,1.33064 6.52675,2.26483 11.8838,2.26483 5.72363,0 10.56551,-1.06793 12.23359,-2.54466 0.059,0.0244 0.12148,0.035 0.18363,0.035 0.56829,0 1.02311,-1.0586 1.02311,-2.37851 l 0,-10.00373 c 0,-1.27155 -0.42269,-2.30455 -0.96189,-2.37851 -1.38611,-1.60205 -6.443,-2.78951 -12.47844,-2.78951 z m 11.39412,5.37788 0,9.30417 c -2.1504,-1.17095 -6.44476,-1.96752 -11.39412,-1.96752 -4.69924,0 -8.80903,0.7176 -11.05307,1.79263 l 0,-8.95439 c 2.24404,1.07503 6.35383,1.79263 11.05307,1.79263 4.94936,0 9.24372,-0.79656 11.39412,-1.96752 z"
       id="path5296-3-6-1-5-3"
       inkscape:connector-curvature="0" />
    <text
       xml:space="preserve"
       style="font-size:12px;font-style:normal;font-weight:normal;line-height:125%;letter-spacing:0px;word-spacing:0px;fill:#000000;fill-opacity:1;stroke:none;display:inline;font-family:Sans"
       x="799.80078"
       y="402.44763"
       id="text5344-9-9-2-5-8"
       sodipodi:linespacing="125%"><tspan
         sodipodi:role="line"
         id="tspan5346-1-8-9-1-6"
         x="799.80078"
         y="402.44763"
         style="font-size:12px;font-weight:bold;-inkscape-font-specification:Sans Bold">Branch</tspan></text>
    <path
       style="opacity:0.5;fill:#c83737;fill-opacity:1;stroke:#000000;stroke-width:1.11929893;stroke-miterlimit:4;stroke-dasharray:none;display:inline"
       d="m 876.05747,367.98375 c -7.10309,0 -12.86319,1.64325 -12.86319,3.6727 0,0.0695 0.0129,0.13255 0.0262,0.20112 -0.15981,0.41985 -0.26233,0.96698 -0.26233,1.57401 l 0,10.00374 c 0,1.31991 0.45481,2.38725 1.02311,2.38725 0.0648,0 0.13096,-0.0173 0.19238,-0.0437 1.9339,1.33064 6.52675,2.26483 11.8838,2.26483 5.72363,0 10.56551,-1.06793 12.23359,-2.54466 0.059,0.0244 0.12148,0.035 0.18363,0.035 0.56829,0 1.02311,-1.0586 1.02311,-2.37851 l 0,-10.00373 c 0,-1.27155 -0.42269,-2.30455 -0.96189,-2.37851 -1.38611,-1.60205 -6.443,-2.78951 -12.47844,-2.78951 z m 11.39412,5.37788 0,9.30417 c -2.1504,-1.17095 -6.44476,-1.96752 -11.39412,-1.96752 -4.69924,0 -8.80903,0.7176 -11.05307,1.79263 l 0,-8.95439 c 2.24404,1.07503 6.35383,1.79263 11.05307,1.79263 4.94936,0 9.24372,-0.79656 11.39412,-1.96752 z"
       id="path5296-3-6-1-5-6"
       inkscape:connector-curvature="0" />
    <text
       xml:space="preserve"
       style="font-size:12px;font-style:normal;font-weight:normal;line-height:125%;letter-spacing:0px;word-spacing:0px;fill:#000000;fill-opacity:1;stroke:none;display:inline;font-family:Sans"
       x="852.77032"
       y="403.41711"
       id="text5344-9-9-2-5-6"
       sodipodi:linespacing="125%"><tspan
         sodipodi:role="line"
         id="tspan5346-1-8-9-1-3"
         x="852.77032"
         y="403.41711"
         style="font-size:12px;font-weight:bold;-inkscape-font-specification:Sans Bold">Branch</tspan></text>
    <path
       style="opacity:0.5;fill:#c83737;fill-opacity:1;stroke:#000000;stroke-width:1.11929893;stroke-miterlimit:4;stroke-dasharray:none;display:inline"
       d="m 821.32905,319.69189 c -7.10309,0 -12.86319,1.64325 -12.86319,3.6727 0,0.0695 0.0129,0.13255 0.0262,0.20112 -0.15981,0.41985 -0.26233,0.96698 -0.26233,1.57401 l 0,10.00374 c 0,1.31991 0.45481,2.38725 1.02311,2.38725 0.0648,0 0.13096,-0.0173 0.19238,-0.0437 1.9339,1.33064 6.52675,2.26483 11.8838,2.26483 5.72363,0 10.56551,-1.06793 12.23359,-2.54466 0.059,0.0244 0.12148,0.035 0.18363,0.035 0.56829,0 1.02311,-1.0586 1.02311,-2.37851 l 0,-10.00373 c 0,-1.27155 -0.42269,-2.30455 -0.96189,-2.37851 -1.38611,-1.60205 -6.443,-2.78951 -12.47844,-2.78951 z m 11.39412,5.37788 0,9.30417 c -2.1504,-1.17095 -6.44476,-1.96752 -11.39412,-1.96752 -4.69924,0 -8.80903,0.7176 -11.05307,1.79263 l 0,-8.95439 c 2.24404,1.07503 6.35383,1.79263 11.05307,1.79263 4.94936,0 9.24372,-0.79656 11.39412,-1.96752 z"
       id="path5296-3-6-1-5-3-1"
       inkscape:connector-curvature="0" />
    <text
       xml:space="preserve"
       style="font-size:12px;font-style:normal;font-weight:normal;line-height:125%;letter-spacing:0px;word-spacing:0px;fill:#000000;fill-opacity:1;stroke:none;display:inline;font-family:Sans"
       x="798.04193"
       y="355.12531"
       id="text5344-9-9-2-5-8-8"
       sodipodi:linespacing="125%"><tspan
         sodipodi:role="line"
         id="tspan5346-1-8-9-1-6-8"
         x="798.04193"
         y="355.12531"
         style="font-size:12px;font-weight:bold;-inkscape-font-specification:Sans Bold">Branch</tspan></text>
    <path
       style="opacity:0.5;fill:#c83737;fill-opacity:1;stroke:#000000;stroke-width:1.11929893;stroke-miterlimit:4;stroke-dasharray:none;display:inline"
       d="m 874.2986,320.66143 c -7.10309,0 -12.86319,1.64325 -12.86319,3.6727 0,0.0695 0.0129,0.13255 0.0262,0.20112 -0.15981,0.41985 -0.26233,0.96698 -0.26233,1.57401 l 0,10.00374 c 0,1.31991 0.45481,2.38725 1.02311,2.38725 0.0648,0 0.13096,-0.0173 0.19238,-0.0437 1.9339,1.33064 6.52675,2.26483 11.8838,2.26483 5.72363,0 10.56551,-1.06793 12.23359,-2.54466 0.059,0.0244 0.12148,0.035 0.18363,0.035 0.56829,0 1.02311,-1.0586 1.02311,-2.37851 l 0,-10.00373 c 0,-1.27155 -0.42269,-2.30455 -0.96189,-2.37851 -1.38611,-1.60205 -6.443,-2.78951 -12.47844,-2.78951 z m 11.39412,5.37788 0,9.30417 c -2.1504,-1.17095 -6.44476,-1.96752 -11.39412,-1.96752 -4.69924,0 -8.80903,0.7176 -11.05307,1.79263 l 0,-8.95439 c 2.24404,1.07503 6.35383,1.79263 11.05307,1.79263 4.94936,0 9.24372,-0.79656 11.39412,-1.96752 z"
       id="path5296-3-6-1-5-6-7"
       inkscape:connector-curvature="0" />
    <text
       xml:space="preserve"
       style="font-size:12px;font-style:normal;font-weight:normal;line-height:125%;letter-spacing:0px;word-spacing:0px;fill:#000000;fill-opacity:1;stroke:none;display:inline;font-family:Sans"
       x="851.01147"
       y="356.09479"
       id="text5344-9-9-2-5-6-3"
       sodipodi:linespacing="125%"><tspan
         sodipodi:role="line"
         id="tspan5346-1-8-9-1-3-0"
         x="851.01147"
         y="356.09479"
         style="font-size:12px;font-weight:bold;-inkscape-font-specification:Sans Bold">Branch</tspan></text>
    <path
       style="fill:#ffffff;fill-opacity:1;stroke:#000000;stroke-width:1.78099346;stroke-miterlimit:4;stroke-dasharray:none;display:inline"
       d="m 102.63615,490.87096 c -4.65291,0 -8.42861,3.69402 -8.42861,8.25355 0,3.9896 2.88105,7.31576 6.72011,8.08558 -0.35947,0.80635 -0.58373,1.90966 -0.58373,3.12448 l 0,2.69892 -8.17233,0 c -1.47945,0 -2.82709,0.15325 -3.88685,0.41436 -0.2429,-0.0429 -0.58778,0.0762 -0.98239,0.30237 -0.69299,0.27066 -1.13932,0.60199 -1.2529,0.9631 -0.36567,0.3431 -0.74363,0.73854 -1.11052,1.18708 l -7.9303,9.687 c -1.44932,1.77184 -2.1804,3.57507 -1.65155,4.04279 0.52884,0.46771 2.1243,-0.57993 3.57361,-2.35176 l 7.91606,-9.68701 c 0.38212,-0.46716 0.70903,-0.93101 0.98239,-1.37746 1.1125,0.33476 2.64218,0.53755 4.34245,0.53755 l 8.17233,0 0,19.72117 c 0,1.13222 0.19547,2.15744 0.51254,2.9453 -1.19494,0.61011 -2.72537,2.24163 -3.94378,4.34515 l -9.2971,16.07036 c -1.70305,2.94017 -2.14249,5.64284 -0.98239,6.05857 1.16009,0.41575 3.46518,-1.61776 5.16822,-4.55792 l 9.29709,-16.07036 c 0.58894,-1.01677 1.02316,-2.00306 1.29561,-2.87811 0.33092,0.96041 0.91202,2.07411 1.69428,3.22527 l 10.57847,15.57761 c 1.9363,2.84945 4.39986,4.76185 5.52416,4.28916 1.1243,-0.47269 0.46984,-3.14193 -1.46646,-5.99139 l -10.57849,-15.5776 c -1.39484,-2.05264 -3.06953,-3.61564 -4.31396,-4.15477 0.4063,-0.81824 0.65492,-1.97907 0.65492,-3.28127 l 0,-19.72117 6.33569,0 c 2.00429,0 3.77414,-0.28211 4.89771,-0.72793 0.27425,0.49466 0.64208,1.04632 1.12477,1.62384 l 8.0442,9.61981 c 1.47142,1.76052 3.27124,3.02389 4.02922,2.83331 0.75799,-0.19059 0.1758,-1.76712 -1.29561,-3.52764 l -8.0442,-9.61981 c -0.89191,-1.06716 -1.89276,-1.95249 -2.71937,-2.44136 -0.57254,-0.85082 -3.05057,-1.47824 -6.03672,-1.47824 l -6.33569,0 0,-2.69892 c 0,-1.17612 -0.20165,-2.24754 -0.54102,-3.04609 4.03064,-0.61677 7.10452,-4.04116 7.10452,-8.16397 0,-4.55953 -3.76146,-8.25355 -8.41438,-8.25355 z"
       id="path3761-4-7"
       inkscape:connector-curvature="0"
       inkscape:export-filename="/home/jr0cket/Dropbox/DevGuides/git-local-workflow.png"
       inkscape:export-xdpi="90"
       inkscape:export-ydpi="90" />
    <path
       style="fill:#c83737;fill-opacity:1;stroke:#000000;stroke-width:2.67544055;stroke-miterlimit:4;stroke-dasharray:none;display:inline"
       d="m 190.75279,507.53617 c -16.9784,0 -30.74667,3.92782 -30.74667,8.77878 0,0.16618 0.0309,0.31685 0.0627,0.48074 -0.38199,1.00357 -0.62705,2.31135 -0.62705,3.76234 l 0,23.91175 c 0,3.15496 1.08713,5.70621 2.44552,5.70621 0.15493,0 0.31302,-0.0413 0.45984,-0.10445 4.62256,3.18062 15.60078,5.4136 28.40564,5.4136 13.68109,0 25.25457,-2.55265 29.24174,-6.08247 0.14115,0.0583 0.29037,0.0836 0.43894,0.0836 1.35837,0 2.44552,-2.53036 2.44552,-5.68531 l 0,-23.91175 c 0,-3.03936 -1.01036,-5.50851 -2.2992,-5.68531 -3.31319,-3.82935 -15.4006,-6.6677 -29.827,-6.6677 z m 27.23515,12.85465 0,22.2396 c -5.14005,-2.79892 -15.40481,-4.70293 -27.23515,-4.70293 -11.23251,0 -21.05608,1.71526 -26.41998,4.28489 l 0,-21.40352 c 5.3639,2.56963 15.18747,4.28488 26.41998,4.28488 11.83034,0 22.0951,-1.904 27.23515,-4.70292 z"
       id="path5296-9-6"
       inkscape:connector-curvature="0"
       inkscape:export-filename="/home/jr0cket/Dropbox/DevGuides/git-local-workflow.png"
       inkscape:export-xdpi="90"
       inkscape:export-ydpi="90" />
    <text
       xml:space="preserve"
       style="font-size:18px;font-style:normal;font-weight:normal;line-height:125%;letter-spacing:0px;word-spacing:0px;fill:#000000;fill-opacity:1;stroke:none;display:inline;font-family:Sans"
       x="140.03876"
       y="580.26129"
       id="text5344-2-2"
       sodipodi:linespacing="125%"
       inkscape:export-filename="/home/jr0cket/Dropbox/DevGuides/git-local-workflow.png"
       inkscape:export-xdpi="90"
       inkscape:export-ydpi="90"><tspan
         sodipodi:role="line"
         id="tspan5346-6-9"
         x="140.03876"
         y="580.26129"
         style="font-weight:bold;-inkscape-font-specification:Sans Bold">Local repo</tspan></text>
    <path
       style="fill:#c83737;fill-opacity:1;stroke:#000000;stroke-width:4.33038759;stroke-miterlimit:4;stroke-dasharray:none;display:inline"
       d="m 700.77783,488.84915 c -27.48074,0 -49.76564,6.35745 -49.76564,14.20907 0,0.26898 0.05,0.51285 0.10148,0.77811 -0.61826,1.62435 -1.01492,3.74109 -1.01492,6.08961 l 0,38.70284 c 0,5.10653 1.75961,9.23591 3.95824,9.23591 0.25078,0 0.50665,-0.0669 0.74429,-0.16906 7.48194,5.14806 25.25096,8.76228 45.97652,8.76228 22.1438,0 40.87627,-4.13163 47.32978,-9.84489 0.22847,0.0944 0.46999,0.13531 0.71046,0.13531 2.19862,0 3.95824,-4.09557 3.95824,-9.20208 l 0,-38.70284 c 0,-4.91941 -1.63533,-8.91591 -3.72141,-9.20207 -5.36263,-6.19807 -24.92693,-10.79214 -48.27707,-10.79214 z m 44.08198,20.80615 0,35.99635 c -8.31953,-4.53025 -24.93374,-7.61202 -44.08198,-7.61202 -18.1806,0 -34.08073,2.77627 -42.76258,6.93539 l 0,-34.64309 c 8.68185,4.15913 24.58198,6.93538 42.76258,6.93538 19.14824,0 35.76245,-3.08176 44.08198,-7.61201 z"
       id="path5296-7-9-3-3-1"
       inkscape:connector-curvature="0" />
    <text
       xml:space="preserve"
       style="font-size:18px;font-style:normal;font-weight:normal;text-align:center;line-height:125%;letter-spacing:0px;word-spacing:0px;text-anchor:middle;fill:#000000;fill-opacity:1;stroke:none;display:inline;font-family:Sans"
       x="703.53162"
       y="592.06152"
       id="text5344-98-2-7-5-9"
       sodipodi:linespacing="125%"><tspan
         sodipodi:role="line"
         id="tspan5346-19-3-7-3-3"
         x="703.53162"
         y="592.06152"
         style="font-weight:bold;text-align:center;text-anchor:middle;-inkscape-font-specification:Sans Bold">Shared</tspan><tspan
         sodipodi:role="line"
         x="703.53162"
         y="614.56152"
         style="font-weight:bold;text-align:center;text-anchor:middle;-inkscape-font-specification:Sans Bold"
         id="tspan7057-2-3">Github repo</tspan></text>
    <text
       xml:space="preserve"
       style="font-size:18px;font-style:normal;font-weight:normal;line-height:125%;letter-spacing:0px;word-spacing:0px;fill:#000000;fill-opacity:1;stroke:none;display:inline;font-family:Sans"
       x="76.360107"
       y="586.0849"
       id="text5658-2-5-5"
       sodipodi:linespacing="125%"
       inkscape:export-filename="/home/jr0cket/Dropbox/DevGuides/git-local-workflow.png"
       inkscape:export-xdpi="90"
       inkscape:export-ydpi="90"><tspan
         sodipodi:role="line"
         id="tspan5660-1-9-8"
         x="76.360107"
         y="586.0849"
         style="font-weight:bold;-inkscape-font-specification:Sans Bold">EV's</tspan></text>
    <text
       xml:space="preserve"
       style="font-size:18px;font-style:normal;font-weight:normal;text-align:center;line-height:125%;letter-spacing:0px;word-spacing:0px;text-anchor:middle;fill:#000000;fill-opacity:1;stroke:none;display:inline;font-family:Sans"
       x="223.69685"
       y="612.96057"
       id="text5678-5-4-5-1-8-7-6"
       sodipodi:linespacing="125%"><tspan
         sodipodi:role="line"
         id="tspan5680-3-2-5-3-2-9-1"
         x="223.69685"
         y="612.96057"
         style="font-style:italic;text-align:center;text-anchor:middle;-inkscape-font-specification:Sans Italic">Branches are created for different features</tspan><tspan
         sodipodi:role="line"
         x="223.69685"
         y="629.4801"
         style="font-size:12px;font-style:italic;text-align:center;text-anchor:middle;-inkscape-font-specification:Sans Italic"
         id="tspan3331-9-8">(branches are often shared in the Github repository)</tspan></text>
    <text
       xml:space="preserve"
       style="font-size:24px;font-style:normal;font-weight:bold;line-height:125%;letter-spacing:0px;word-spacing:0px;fill:#000000;fill-opacity:1;stroke:none;display:inline;font-family:Sans;-inkscape-font-specification:Sans Bold"
       x="630.61584"
       y="473.46234"
       id="text5836-0-2-2"
       sodipodi:linespacing="125%"><tspan
         sodipodi:role="line"
         x="630.61584"
         y="473.46234"
         id="tspan8048-7">Github Org</tspan></text>
    <text
       xml:space="preserve"
       style="font-size:18px;font-style:normal;font-weight:normal;line-height:125%;letter-spacing:0px;word-spacing:0px;fill:#000000;fill-opacity:1;stroke:none;display:inline;font-family:Sans"
       x="383.59888"
       y="532.05927"
       id="text5678-5-4-5-1-0-4-0-9"
       sodipodi:linespacing="125%"><tspan
         sodipodi:role="line"
         id="tspan5680-3-2-5-3-9-7-4-8"
         x="383.59888"
         y="532.05927">git push <tspan
   style="font-style:italic"
   id="tspan7877-6-7">github</tspan><tspan
   style="font-style:italic;fill:#000000;fill-opacity:1"
   id="tspan6174-3-0-7-9-3-7"> master</tspan></tspan></text>
    <rect
       style="fill:#ffffff;fill-opacity:1;stroke:#000000;stroke-width:4.84773874;stroke-miterlimit:4;stroke-dasharray:none;display:inline"
       id="rect6144-3-7-3-1-5-4"
       width="1.498534"
       height="180.02727"
       x="-549.62836"
       y="-559.14868"
       rx="14.135428"
       ry="26.055529"
       transform="matrix(-0.02310337,-0.99973308,-0.99999998,2.1099101e-4,0,0)" />
    <g
       id="g5650-08-5-3-0-75-5-6-3"
       transform="matrix(-0.42182716,-0.00210227,0.00546558,0.45450458,672.46615,187.87833)"
       style="stroke-width:9.80934143;stroke-miterlimit:4;stroke-dasharray:none;display:inline">
      <g
         id="g5654-7-4-7-2-7-9-7-3"
         transform="matrix(0.40019564,0.04095051,-0.04095051,0.40019564,183.38257,365.5704)"
         style="stroke-width:24.38403893;stroke-miterlimit:4;stroke-dasharray:none">
        <rect
           style="fill:#000000;fill-opacity:1;stroke:#000000;stroke-width:24.38403893;stroke-miterlimit:4;stroke-dasharray:none"
           id="rect5609-74-4-7-9-8-6-1-9"
           width="120.52968"
           height="2.511035"
           x="458.97156"
           y="969.97491"
           rx="21.40765"
           ry="2.511035"
           transform="matrix(0.97437172,0.22494389,-0.22494389,0.97437172,0,0)" />
        <rect
           style="fill:#000000;fill-opacity:1;stroke:#000000;stroke-width:24.38403893;stroke-miterlimit:4;stroke-dasharray:none"
           id="rect5609-7-29-1-9-7-9-3-7-4"
           width="120.52968"
           height="2.511035"
           x="-275.39764"
           y="1037.444"
           rx="21.40765"
           ry="2.511035"
           transform="matrix(0.88918786,-0.4575423,0.4575423,0.88918786,0,0)" />
      </g>
    </g>
    <path
       style="opacity:0.5;fill:#c83737;fill-opacity:1;stroke:#000000;stroke-width:1.11929893;stroke-miterlimit:4;stroke-dasharray:none;display:inline"
       d="m 302.92921,509.75409 c -7.10309,0 -12.86319,1.64325 -12.86319,3.6727 0,0.0695 0.0129,0.13255 0.0262,0.20112 -0.15981,0.41985 -0.26233,0.96698 -0.26233,1.57401 l 0,10.00374 c 0,1.31991 0.45481,2.38725 1.02311,2.38725 0.0648,0 0.13096,-0.0173 0.19238,-0.0437 1.9339,1.33064 6.52675,2.26483 11.8838,2.26483 5.72363,0 10.56551,-1.06793 12.23359,-2.54466 0.059,0.0244 0.12148,0.035 0.18363,0.035 0.56829,0 1.02311,-1.0586 1.02311,-2.37851 l 0,-10.00373 c 0,-1.27155 -0.42269,-2.30455 -0.96189,-2.37851 -1.38611,-1.60205 -6.443,-2.78951 -12.47844,-2.78951 z m 11.39412,5.37788 0,9.30417 c -2.1504,-1.17095 -6.44476,-1.96752 -11.39412,-1.96752 -4.69924,0 -8.80903,0.7176 -11.05307,1.79263 l 0,-8.95439 c 2.24404,1.07503 6.35383,1.79263 11.05307,1.79263 4.94936,0 9.24372,-0.79656 11.39412,-1.96752 z"
       id="path5296-3-6-1-5-32"
       inkscape:connector-curvature="0" />
    <text
       xml:space="preserve"
       style="font-size:12px;font-style:normal;font-weight:normal;line-height:125%;letter-spacing:0px;word-spacing:0px;fill:#000000;fill-opacity:1;stroke:none;display:inline;font-family:Sans"
       x="279.64209"
       y="551.1875"
       id="text5344-9-9-2-5-4"
       sodipodi:linespacing="125%"><tspan
         sodipodi:role="line"
         id="tspan5346-1-8-9-1-32"
         x="279.64209"
         y="551.1875"
         style="font-size:12px;font-weight:bold;-inkscape-font-specification:Sans Bold">Branch</tspan></text>
    <text
       xml:space="preserve"
       style="font-size:20px;font-style:normal;font-weight:bold;line-height:125%;letter-spacing:0px;word-spacing:0px;fill:#000000;fill-opacity:1;stroke:none;display:inline;font-family:Sans;-inkscape-font-specification:Sans Bold"
       x="83.409271"
       y="476.44904"
       id="text7879-5-9"
       sodipodi:linespacing="125%"><tspan
         sodipodi:role="line"
         id="tspan7881-7-4"
         x="83.409271"
         y="476.44904">Branching approach</tspan></text>
    <path
       style="opacity:0.5;fill:#c83737;fill-opacity:1;stroke:#000000;stroke-width:1.11929893;stroke-miterlimit:4;stroke-dasharray:none;display:inline"
       d="m 815.91702,577.06267 c -7.10309,0 -12.86319,1.64325 -12.86319,3.6727 0,0.0695 0.0129,0.13255 0.0262,0.20112 -0.15981,0.41985 -0.26233,0.96698 -0.26233,1.57401 l 0,10.00374 c 0,1.31991 0.45481,2.38725 1.02311,2.38725 0.0648,0 0.13096,-0.0173 0.19238,-0.0437 1.9339,1.33064 6.52675,2.26483 11.8838,2.26483 5.72363,0 10.56551,-1.06793 12.23359,-2.54466 0.059,0.0244 0.12148,0.035 0.18363,0.035 0.56829,0 1.02311,-1.0586 1.02311,-2.37851 l 0,-10.00373 c 0,-1.27155 -0.42269,-2.30455 -0.96189,-2.37851 -1.38611,-1.60205 -6.443,-2.78951 -12.47844,-2.78951 z m 11.39412,5.37788 0,9.30417 c -2.1504,-1.17095 -6.44476,-1.96752 -11.39412,-1.96752 -4.69924,0 -8.80903,0.7176 -11.05307,1.79263 l 0,-8.95439 c 2.24404,1.07503 6.35383,1.79263 11.05307,1.79263 4.94936,0 9.24372,-0.79656 11.39412,-1.96752 z"
       id="path5296-3-6-1-5-3-9"
       inkscape:connector-curvature="0" />
    <text
       xml:space="preserve"
       style="font-size:12px;font-style:normal;font-weight:normal;line-height:125%;letter-spacing:0px;word-spacing:0px;fill:#000000;fill-opacity:1;stroke:none;display:inline;font-family:Sans"
       x="792.62988"
       y="612.49609"
       id="text5344-9-9-2-5-8-7"
       sodipodi:linespacing="125%"><tspan
         sodipodi:role="line"
         id="tspan5346-1-8-9-1-6-6"
         x="792.62988"
         y="612.49609"
         style="font-size:12px;font-weight:bold;-inkscape-font-specification:Sans Bold">Branch</tspan></text>
    <path
       style="opacity:0.5;fill:#c83737;fill-opacity:1;stroke:#000000;stroke-width:1.11929893;stroke-miterlimit:4;stroke-dasharray:none;display:inline"
       d="m 868.88657,578.03221 c -7.10309,0 -12.86319,1.64325 -12.86319,3.6727 0,0.0695 0.0129,0.13255 0.0262,0.20112 -0.15981,0.41985 -0.26233,0.96698 -0.26233,1.57401 l 0,10.00374 c 0,1.31991 0.45481,2.38725 1.02311,2.38725 0.0648,0 0.13096,-0.0173 0.19238,-0.0437 1.9339,1.33064 6.52675,2.26483 11.8838,2.26483 5.72363,0 10.56551,-1.06793 12.23359,-2.54466 0.059,0.0244 0.12148,0.035 0.18363,0.035 0.56829,0 1.02311,-1.0586 1.02311,-2.37851 l 0,-10.00373 c 0,-1.27155 -0.42269,-2.30455 -0.96189,-2.37851 -1.38611,-1.60205 -6.443,-2.78951 -12.47844,-2.78951 z m 11.39412,5.37788 0,9.30417 c -2.1504,-1.17095 -6.44476,-1.96752 -11.39412,-1.96752 -4.69924,0 -8.80903,0.7176 -11.05307,1.79263 l 0,-8.95439 c 2.24404,1.07503 6.35383,1.79263 11.05307,1.79263 4.94936,0 9.24372,-0.79656 11.39412,-1.96752 z"
       id="path5296-3-6-1-5-6-0"
       inkscape:connector-curvature="0" />
    <text
       xml:space="preserve"
       style="font-size:12px;font-style:normal;font-weight:normal;line-height:125%;letter-spacing:0px;word-spacing:0px;fill:#000000;fill-opacity:1;stroke:none;display:inline;font-family:Sans"
       x="845.59949"
       y="613.46558"
       id="text5344-9-9-2-5-6-0"
       sodipodi:linespacing="125%"><tspan
         sodipodi:role="line"
         id="tspan5346-1-8-9-1-3-7"
         x="845.59949"
         y="613.46558"
         style="font-size:12px;font-weight:bold;-inkscape-font-specification:Sans Bold">Branch</tspan></text>
    <path
       style="opacity:0.5;fill:#c83737;fill-opacity:1;stroke:#000000;stroke-width:1.11929893;stroke-miterlimit:4;stroke-dasharray:none;display:inline"
       d="m 814.15815,529.74034 c -7.10309,0 -12.86319,1.64325 -12.86319,3.6727 0,0.0695 0.0129,0.13255 0.0262,0.20112 -0.15981,0.41985 -0.26233,0.96698 -0.26233,1.57401 l 0,10.00374 c 0,1.31991 0.45481,2.38725 1.02311,2.38725 0.0648,0 0.13096,-0.0173 0.19238,-0.0437 1.9339,1.33064 6.52675,2.26483 11.8838,2.26483 5.72363,0 10.56551,-1.06793 12.23359,-2.54466 0.059,0.0244 0.12148,0.035 0.18363,0.035 0.56829,0 1.02311,-1.0586 1.02311,-2.37851 l 0,-10.00373 c 0,-1.27155 -0.42269,-2.30455 -0.96189,-2.37851 -1.38611,-1.60205 -6.443,-2.78951 -12.47844,-2.78951 z m 11.39412,5.37788 0,9.30417 c -2.1504,-1.17095 -6.44476,-1.96752 -11.39412,-1.96752 -4.69924,0 -8.80903,0.7176 -11.05307,1.79263 l 0,-8.95439 c 2.24404,1.07503 6.35383,1.79263 11.05307,1.79263 4.94936,0 9.24372,-0.79656 11.39412,-1.96752 z"
       id="path5296-3-6-1-5-3-1-5"
       inkscape:connector-curvature="0" />
    <text
       xml:space="preserve"
       style="font-size:12px;font-style:normal;font-weight:normal;line-height:125%;letter-spacing:0px;word-spacing:0px;fill:#000000;fill-opacity:1;stroke:none;display:inline;font-family:Sans"
       x="790.87109"
       y="565.17377"
       id="text5344-9-9-2-5-8-8-3"
       sodipodi:linespacing="125%"><tspan
         sodipodi:role="line"
         id="tspan5346-1-8-9-1-6-8-2"
         x="790.87109"
         y="565.17377"
         style="font-size:12px;font-weight:bold;-inkscape-font-specification:Sans Bold">Branch</tspan></text>
    <path
       style="opacity:0.5;fill:#c83737;fill-opacity:1;stroke:#000000;stroke-width:1.11929893;stroke-miterlimit:4;stroke-dasharray:none;display:inline"
       d="m 867.1277,530.70988 c -7.10309,0 -12.86319,1.64325 -12.86319,3.6727 0,0.0695 0.0129,0.13255 0.0262,0.20112 -0.15981,0.41985 -0.26233,0.96698 -0.26233,1.57401 l 0,10.00374 c 0,1.31991 0.45481,2.38725 1.02311,2.38725 0.0648,0 0.13096,-0.0173 0.19238,-0.0437 1.9339,1.33064 6.52675,2.26483 11.8838,2.26483 5.72363,0 10.56551,-1.06793 12.23359,-2.54466 0.059,0.0244 0.12148,0.035 0.18363,0.035 0.56829,0 1.02311,-1.0586 1.02311,-2.37851 l 0,-10.00373 c 0,-1.27155 -0.42269,-2.30455 -0.96189,-2.37851 -1.38611,-1.60205 -6.443,-2.78951 -12.47844,-2.78951 z m 11.39412,5.37788 0,9.30417 c -2.1504,-1.17095 -6.44476,-1.96752 -11.39412,-1.96752 -4.69924,0 -8.80903,0.7176 -11.05307,1.79263 l 0,-8.95439 c 2.24404,1.07503 6.35383,1.79263 11.05307,1.79263 4.94936,0 9.24372,-0.79656 11.39412,-1.96752 z"
       id="path5296-3-6-1-5-6-7-4"
       inkscape:connector-curvature="0" />
    <text
       xml:space="preserve"
       style="font-size:12px;font-style:normal;font-weight:normal;line-height:125%;letter-spacing:0px;word-spacing:0px;fill:#000000;fill-opacity:1;stroke:none;display:inline;font-family:Sans"
       x="843.84058"
       y="566.14325"
       id="text5344-9-9-2-5-6-3-2"
       sodipodi:linespacing="125%"><tspan
         sodipodi:role="line"
         id="tspan5346-1-8-9-1-3-0-3"
         x="843.84058"
         y="566.14325"
         style="font-size:12px;font-weight:bold;-inkscape-font-specification:Sans Bold">Branch</tspan></text>
    <path
       style="fill:#ffffff;fill-opacity:1;stroke:#000000;stroke-width:1.78099346;stroke-miterlimit:4;stroke-dasharray:none;display:inline"
       d="m 440.84448,647.03919 c -4.65291,0 -8.42861,3.69402 -8.42861,8.25355 0,3.9896 2.88105,7.31576 6.72011,8.08558 -0.35947,0.80635 -0.58373,1.90966 -0.58373,3.12448 l 0,2.69892 -8.17233,0 c -1.47945,0 -2.82709,0.15325 -3.88685,0.41436 -0.2429,-0.0429 -0.58778,0.0762 -0.98239,0.30237 -0.69299,0.27066 -1.13932,0.60199 -1.2529,0.9631 -0.36567,0.3431 -0.74363,0.73854 -1.11052,1.18708 l -7.9303,9.687 c -1.44932,1.77184 -2.1804,3.57507 -1.65155,4.04279 0.52884,0.46771 2.1243,-0.57993 3.57361,-2.35176 l 7.91606,-9.68701 c 0.38212,-0.46716 0.70903,-0.93101 0.98239,-1.37746 1.1125,0.33476 2.64218,0.53755 4.34245,0.53755 l 8.17233,0 0,19.72117 c 0,1.13222 0.19547,2.15744 0.51254,2.9453 -1.19494,0.61011 -2.72537,2.24163 -3.94378,4.34515 l -9.2971,16.07036 c -1.70305,2.94017 -2.14249,5.64284 -0.98239,6.05857 1.16009,0.41575 3.46518,-1.61776 5.16822,-4.55792 l 9.29709,-16.07036 c 0.58894,-1.01677 1.02316,-2.00306 1.29561,-2.87811 0.33092,0.96041 0.91202,2.07411 1.69428,3.22527 l 10.57847,15.57761 c 1.9363,2.84945 4.39986,4.76185 5.52416,4.28916 1.1243,-0.47269 0.46984,-3.14193 -1.46646,-5.99139 l -10.57849,-15.5776 c -1.39484,-2.05264 -3.06953,-3.61564 -4.31396,-4.15477 0.4063,-0.81824 0.65492,-1.97907 0.65492,-3.28127 l 0,-19.72117 6.33569,0 c 2.00429,0 3.77414,-0.28211 4.89771,-0.72793 0.27425,0.49466 0.64208,1.04632 1.12477,1.62384 l 8.0442,9.61981 c 1.47142,1.76052 3.27124,3.02389 4.02922,2.83331 0.75799,-0.19059 0.1758,-1.76712 -1.29561,-3.52764 l -8.0442,-9.61981 c -0.89191,-1.06716 -1.89276,-1.95249 -2.71937,-2.44136 -0.57254,-0.85082 -3.05057,-1.47824 -6.03672,-1.47824 l -6.33569,0 0,-2.69892 c 0,-1.17612 -0.20165,-2.24754 -0.54102,-3.04609 4.03064,-0.61677 7.10452,-4.04116 7.10452,-8.16397 0,-4.55953 -3.76146,-8.25355 -8.41438,-8.25355 z"
       id="path3761-4-7-2"
       inkscape:connector-curvature="0"
       inkscape:export-filename="/home/jr0cket/Dropbox/DevGuides/git-local-workflow.png"
       inkscape:export-xdpi="90"
       inkscape:export-ydpi="90" />
    <text
       xml:space="preserve"
       style="font-size:18px;font-style:normal;font-weight:normal;line-height:125%;letter-spacing:0px;word-spacing:0px;fill:#000000;fill-opacity:1;stroke:none;display:inline;font-family:Sans"
       x="355.15701"
       y="718.28442"
       id="text5658-2-5-5-6"
       sodipodi:linespacing="125%"
       inkscape:export-filename="/home/jr0cket/Dropbox/DevGuides/git-local-workflow.png"
       inkscape:export-xdpi="90"
       inkscape:export-ydpi="90"><tspan
         sodipodi:role="line"
         id="tspan5660-1-9-8-3"
         x="355.15701"
         y="718.28442"
         style="font-weight:bold;-inkscape-font-specification:Sans Bold">MVP's</tspan></text>
    <path
       style="fill:#c83737;fill-opacity:1;stroke:#000000;stroke-width:2.40851402;stroke-miterlimit:4;stroke-dasharray:none;display:inline"
       d="m 533.85715,639.55757 c -15.28448,0 -27.6791,3.53595 -27.6791,7.90293 0,0.14961 0.0278,0.28524 0.0564,0.43278 -0.34387,0.90344 -0.56449,2.08075 -0.56449,3.38697 l 0,21.5261 c 0,2.84019 0.97868,5.13691 2.20153,5.13691 0.13948,0 0.2818,-0.0372 0.41397,-0.094 4.16137,2.8633 14.04431,4.87348 25.57164,4.87348 12.31613,0 22.73493,-2.29796 26.32429,-5.47561 0.12708,0.0525 0.26141,0.0752 0.39515,0.0752 1.22285,0 2.20153,-2.27791 2.20153,-5.11809 l 0,-21.5261 c 0,-2.73612 -0.90955,-4.95893 -2.0698,-5.11809 -2.98263,-3.4473 -13.86408,-6.00247 -26.85117,-6.00247 z m 24.51792,11.57216 0,20.02077 c -4.62724,-2.51967 -13.86788,-4.23372 -24.51792,-4.23372 -10.11185,0 -18.95533,1.54413 -23.78408,3.85739 l 0,-19.26811 c 4.82875,2.31326 13.67223,3.85738 23.78408,3.85738 10.65004,0 19.89068,-1.71404 24.51792,-4.23371 z"
       id="path5296-7-9-3-3-1-3"
       inkscape:connector-curvature="0" />
    <text
       xml:space="preserve"
       style="font-size:18px;font-style:normal;font-weight:normal;text-align:center;line-height:125%;letter-spacing:0px;word-spacing:0px;text-anchor:middle;fill:#000000;fill-opacity:1;stroke:none;display:inline;font-family:Sans"
       x="538.07501"
       y="704.55652"
       id="text5344-98-2-7-5-9-4"
       sodipodi:linespacing="125%"><tspan
         sodipodi:role="line"
         id="tspan5346-19-3-7-3-3-0"
         x="538.07501"
         y="704.55652"
         style="font-weight:bold;text-align:center;text-anchor:middle;-inkscape-font-specification:Sans Bold">Forked</tspan><tspan
         sodipodi:role="line"
         x="538.07501"
         y="727.05652"
         style="font-weight:bold;text-align:center;text-anchor:middle;-inkscape-font-specification:Sans Bold"
         id="tspan7057-2-3-1">Github repo</tspan></text>
    <text
       xml:space="preserve"
       style="font-size:18px;font-style:normal;font-weight:normal;line-height:125%;letter-spacing:0px;word-spacing:0px;fill:#000000;fill-opacity:1;stroke:none;display:inline;font-family:Sans"
       x="167.77736"
       y="776.25043"
       id="text5678-5-4-5-1-0-4-0-9-1"
       sodipodi:linespacing="125%"
       transform="matrix(0.90630778,-0.42261827,0.42261827,0.90630778,0,0)"><tspan
         sodipodi:role="line"
         id="tspan5680-3-2-5-3-9-7-4-8-6"
         x="167.77736"
         y="776.25043">pull request</tspan></text>
    <rect
       style="fill:#ffffff;fill-opacity:1;stroke:#000000;stroke-width:2.95303798;stroke-miterlimit:4;stroke-dasharray:none;display:inline"
       id="rect6144-3-7-3-1-5-4-2"
       width="0.9128437"
       height="109.66502"
       x="-787.88995"
       y="-266.46194"
       rx="8.6107063"
       ry="15.871929"
       transform="matrix(-0.44344422,-0.89630197,-0.9062186,0.42280948,0,0)" />
    <g
       id="g5650-08-5-3-0-75-5-6-3-1"
       transform="matrix(-0.3831937,0.17636655,0.19703543,0.40961119,528.46118,224.60201)"
       style="stroke-width:9.80934143;stroke-miterlimit:4;stroke-dasharray:none;display:inline">
      <g
         id="g5654-7-4-7-2-7-9-7-3-4"
         transform="matrix(0.40019564,0.04095051,-0.04095051,0.40019564,183.38257,365.5704)"
         style="stroke-width:24.38403893;stroke-miterlimit:4;stroke-dasharray:none">
        <rect
           style="fill:#000000;fill-opacity:1;stroke:#000000;stroke-width:24.38403893;stroke-miterlimit:4;stroke-dasharray:none"
           id="rect5609-74-4-7-9-8-6-1-9-8"
           width="120.52968"
           height="2.511035"
           x="458.97156"
           y="969.97491"
           rx="21.40765"
           ry="2.511035"
           transform="matrix(0.97437172,0.22494389,-0.22494389,0.97437172,0,0)" />
        <rect
           style="fill:#000000;fill-opacity:1;stroke:#000000;stroke-width:24.38403893;stroke-miterlimit:4;stroke-dasharray:none"
           id="rect5609-7-29-1-9-7-9-3-7-4-5"
           width="120.52968"
           height="2.511035"
           x="-275.39764"
           y="1037.444"
           rx="21.40765"
           ry="2.511035"
           transform="matrix(0.88918786,-0.4575423,0.4575423,0.88918786,0,0)" />
      </g>
    </g>
    <path
       style="opacity:0.5;fill:#c83737;fill-opacity:1;stroke:#000000;stroke-width:1.11929893;stroke-miterlimit:4;stroke-dasharray:none;display:inline"
       d="m 623.89999,652.91275 c -7.10309,0 -12.86319,1.64325 -12.86319,3.6727 0,0.0695 0.0129,0.13255 0.0262,0.20112 -0.15981,0.41985 -0.26233,0.96698 -0.26233,1.57401 l 0,10.00374 c 0,1.31991 0.45481,2.38725 1.02311,2.38725 0.0648,0 0.13096,-0.0173 0.19238,-0.0437 1.9339,1.33064 6.52675,2.26483 11.8838,2.26483 5.72363,0 10.56551,-1.06793 12.23359,-2.54466 0.059,0.0244 0.12148,0.035 0.18363,0.035 0.56829,0 1.02311,-1.0586 1.02311,-2.37851 l 0,-10.00373 c 0,-1.27155 -0.42269,-2.30455 -0.96189,-2.37851 -1.38611,-1.60205 -6.443,-2.78951 -12.47844,-2.78951 z m 11.39412,5.37788 0,9.30417 c -2.1504,-1.17095 -6.44476,-1.96752 -11.39412,-1.96752 -4.69924,0 -8.80903,0.7176 -11.05307,1.79263 l 0,-8.95439 c 2.24404,1.07503 6.35383,1.79263 11.05307,1.79263 4.94936,0 9.24372,-0.79656 11.39412,-1.96752 z"
       id="path5296-3-6-1-5-6-0-6"
       inkscape:connector-curvature="0" />
    <text
       xml:space="preserve"
       style="font-size:12px;font-style:normal;font-weight:normal;line-height:125%;letter-spacing:0px;word-spacing:0px;fill:#000000;fill-opacity:1;stroke:none;display:inline;font-family:Sans"
       x="600.61292"
       y="688.34613"
       id="text5344-9-9-2-5-6-0-7"
       sodipodi:linespacing="125%"><tspan
         sodipodi:role="line"
         id="tspan5346-1-8-9-1-3-7-1"
         x="600.61292"
         y="688.34613"
         style="font-size:12px;font-weight:bold;-inkscape-font-specification:Sans Bold">Branch</tspan></text>
  </g>
</svg>
